<?xml version="1.0" standalone="no"?>
<!DOCTYPE svg PUBLIC "-//W3C//DTD SVG 1.1//EN" "http://www.w3.org/Graphics/SVG/1.1/DTD/svg11.dtd" >
<!--
2013-9-30: Created.
-->
<svg>
<metadata>
Created by iconfont
</metadata>
<defs>

<font id="won-icons" horiz-adv-x="1024" >
  <font-face
    font-family="won-icons"
    font-weight="500"
    font-stretch="normal"
    units-per-em="1024"
    ascent="896"
    descent="-128"
  />
    <missing-glyph />
    
    <glyph glyph-name="1" unicode="&#58882;" d="M895.986-128H127.998a63.999 63.999 0 0 0-63.999 63.999V767.986a63.999 63.999 0 0 0 63.999 63.999h383.994a63.999 63.999 0 1 0 0-127.998H191.997v-703.989h639.99V405.815659a63.999 63.999 0 1 0 127.998 0V-64.00099999999998c0-35.391447-28.607553-63.999-63.999-63.999zM511.992 319.99300000000005a63.999 63.999 0 0 0-45.247293 109.246293l447.993 447.993c25.023609 25.023609 65.470977 25.023609 90.494586 0s25.023609-65.470977 0-90.494586l-447.993-447.993c-12.479805-12.543804-28.863549-18.751707-45.247293-18.751707z"  horiz-adv-x="1024" />

    
    <glyph glyph-name="3" unicode="&#58883;" d="M960 640H384a64 64 0 1 0 0 128h576a64 64 0 1 0 0-128z m0-320H384a64 64 0 1 0 0 128h576a64 64 0 1 0 0-128z m0-320H384a64 64 0 1 0 0 128h576c35.392 0 64-28.608 64-64s-28.608-64-64-64zM128 640H64a64 64 0 1 0 0 128h64a64 64 0 0 0 0-128z m0-320H64a64 64 0 1 0 0 128h64a64 64 0 0 0 0-128z m0-320H64a64 64 0 1 0 0 128h64a64 64 0 1 0 0-128z"  horiz-adv-x="1024" />

    
    <glyph glyph-name="2" unicode="&#58884;" d="M831.358441 832.00012H767.99856a63.99988 63.99988 0 1 1-127.99976 0h-255.99952a63.99988 63.99988 0 0 1-127.99976 0H192.639639A191.83964 191.83964 0 0 1 0 640.00048v-576.06292C0-41.982241000000045 86.271838-127.99807999999996 192.639639-127.99807999999996h638.718802A191.80764 191.80764 0 0 1 1023.99808 63.87356V640.00048c0 105.919801-86.271838 191.99964-192.639639 191.99964zM127.99976 640.00048c0 35.519933 28.415947 63.99988 64.639879 63.99988H255.99952a63.99988 63.99988 0 1 1 127.99976 0h255.99952a63.99988 63.99988 0 1 1 127.99976 0h63.359881C867.134374 704.00036 895.99832 675.1364140000001 895.99832 640.00048v-63.99988H127.99976V640.00048z m767.99856-576.12692C895.99832 28.289626999999996 867.518373 0.0016799999999648207 831.358441 0.0016799999999648207H192.639639A64.319879 64.319879 0 0 0 127.99976 63.87356V448.00084h767.99856v-384.12728zM319.9994 256.00120000000004h383.99928a63.99988 63.99988 0 0 1 0 127.99976H319.9994a63.99988 63.99988 0 1 1 0-127.99976z m0-191.99964h383.99928c35.391934 0 63.99988 28.607946 63.99988 63.99988s-28.607946 63.99988-63.99988 63.99988H319.9994a63.99988 63.99988 0 1 1 0-127.99976z"  horiz-adv-x="1024" />

    
    <glyph glyph-name="4" unicode="&#58885;" d="M575.996006-126.40249600000004H191.764368C86.00961-126.40249600000004 0-40.20118600000001 0 65.68137300000001V703.916131A192.33947 192.33947 0 0 0 192.083869 896h638.234758C936.201186 896 1022.402496 810.05429 1022.402496 704.363432V320.898596c0-35.336786-28.56337-63.900156-63.900156-63.900156s-63.900156 28.56337-63.900156 63.900156V704.363432A64.123807 64.123807 0 0 1 830.318627 768.199688H192.083869C156.619282 768.199688 127.800312 739.316817 127.800312 703.916131v-638.234758C127.800312 30.216785999999956 156.491482 1.3978160000000344 191.764368 1.3978160000000344h384.231638a63.900156 63.900156 0 1 0 0-127.800312zM702.901716 1.3978160000000344c-105.690858 0-191.700468 86.00961-191.700468 191.700468s86.00961 191.700468 191.700468 191.700468 191.700468-86.00961 191.700468-191.700468-86.00961-191.700468-191.700468-191.700468z m0 255.600624a63.900156 63.900156 0 1 1 0.03195-127.832262A63.900156 63.900156 0 0 1 702.901716 256.99843999999996z m-63.772356 319.50078H255.856225a63.900156 63.900156 0 0 0 0 127.800312h383.273135a63.900156 63.900156 0 1 0 0-127.800312zM447.301092 384.798752H256.111825a63.900156 63.900156 0 0 0 0 127.800312H447.301092a63.900156 63.900156 0 0 0 0-127.800312z m-64.091856-191.700468H256.303526a63.900156 63.900156 0 1 0 0 127.800312h126.90571a63.900156 63.900156 0 1 0 0-127.800312z m576.187706-321.098284c-16.42234 0-32.90858 6.326115-45.36911 18.914446L779.006802 26.95787800000005a63.836256 63.836256 0 0 0 0.383401 90.354821 63.772356 63.772356 0 0 0 90.35482-0.383401l135.02103-136.043432a63.836256 63.836256 0 0 0-45.369111-108.885866z"  horiz-adv-x="1024" />

    
    <glyph glyph-name="5" unicode="&#58886;" d="M831.359861 895.99968H192.640459A192.22382 192.22382 0 0 1 0.00064 703.359861v-638.719402A192.19182 192.19182 0 0 1 192.640459-127.99936000000002h638.719402A192.22382 192.22382 0 0 1 1023.99968 64.64045899999996V703.359861A192.22382 192.22382 0 0 1 831.359861 895.99968zM895.9998 64.64045899999996c0-35.967966-28.607973-64.639939-64.639939-64.639939h-253.823762l-1.215999 200.127812 92.095913-61.375942c11.00799-7.231993 23.359978-10.75199 35.519967-10.75199a64.03194 64.03194 0 0 1 35.519967 117.24789l-191.99982 127.99988a63.93594 63.93594 0 0 1-70.975934 0l-191.99982-127.99988a64.15994 64.15994 0 0 1-17.727983-88.831917 64.09594 64.09594 0 0 1 88.767917-17.663983l92.799913 61.823942 1.215999-200.575812H192.640459A64.09594 64.09594 0 0 0 128.00052 64.64045899999996V512.00004h767.99928v-447.359581zM895.9998 639.99992H128.00052V703.359861C128.00052 739.263827 156.544493 767.9998 192.640459 767.9998h638.719402C867.391827 767.9998 895.9998 739.3278270000001 895.9998 703.359861V639.99992z"  horiz-adv-x="1024" />

    
    <glyph glyph-name="6" unicode="&#58887;" d="M1009.92 546.624c7.808 15.68 14.08 42.304 14.08 59.712V639.6800000000001A192.224 192.224 0 0 1 831.36 832H192.64A191.904 191.904 0 0 1 0 639.9359999999999v-34.88c0-17.856 6.592-44.608 14.656-60.48l52.864-103.808c15.936-31.296 16-82.176 0-113.472L14.656 223.808C6.336 207.36 0 180.736 0 163.264v-34.88A192.64 192.64 0 0 1 192.64-64h638.72A191.808 191.808 0 0 1 1024 127.87199999999996v33.28c0 17.728-6.4 44.096-14.08 59.776l-52.672 105.664c-15.744 31.616-15.744 83.072 0 114.688l52.672 105.344zM896 606.336c0 2.368-1.6-4.672-0.576-2.496l-52.672-105.408c-33.728-67.584-33.728-161.344-0.064-228.928l52.672-105.728c-0.96 1.984 0.64-4.928 0.64-2.624v-33.28C896 92.28800000000001 867.52 64 831.36 64H448a64 64 0 1 1-128 0H192.64A64.544 64.544 0 0 0 128 128.38400000000001v34.88c0-2.496 1.6 4.096 0.64 2.24l52.864 103.616c34.624 67.648 34.56 161.856 0.064 229.632L128.704 602.624c0.96-1.92-0.704 5.056-0.704 2.432v34.88C128 675.52 156.48 704 192.64 704h638.72C867.328 704 896 675.328 896 639.6800000000001v-33.344zM320 640v-64a64 64 0 1 1 128 0V640a64 64 0 0 1-128 0z m0-192v-64a64 64 0 0 1 128 0v64a64 64 0 0 1-128 0z m128-256v64a64 64 0 1 1-128 0v-64a64 64 0 1 1 128 0z"  horiz-adv-x="1024" />

    
    <glyph glyph-name="7" unicode="&#58888;" d="M128 256a128 128 0 1 0 0 256 128 128 0 0 0 0-256z m384 0a128 128 0 1 0 0 256 128 128 0 0 0 0-256z m384 0a128 128 0 1 0 0 256 128 128 0 0 0 0-256z"  horiz-adv-x="1024" />

    
    <glyph glyph-name="8" unicode="&#58889;" d="M970.944 512c-7.68 92.416-70.656 169.408-147.712 187.776C798.72 788.096 717.056 896 517.056 896c-199.424 0-285.76-108.16-313.984-195.776-78.4-17.216-142.336-94.848-150.016-188.224L15.936 63.936000000000035C7.168-42.111999999999966 86.272-128 192.64-128h638.72c107.072 0 185.472 85.888 176.768 191.872L970.944 512zM517.056 768c94.912 0 141.504-31.744 164.48-64H347.84c25.664 32.256 74.88 64 169.216 64z m-281.408-192h552.704c1.28 0 2.688-1.088 3.968-1.28l-266.24-354.24-101.056 106.24a64.192 64.192 0 0 1-46.4 19.904c-19.648 1.408-34.688-7.36-46.784-20.352L149.888 131.20000000000005l30.72 370.24C184.192 544.704 213.824 576 235.648 576zM831.36 0H202.432l176.576 189.376 106.368-111.872a64.064 64.064 0 0 1 97.6 5.568l265.728 353.6 31.744-383.488c2.688-31.552-17.216-53.184-49.088-53.184z"  horiz-adv-x="1024" />

    
    <glyph glyph-name="10" unicode="&#58890;" d="M831.36032 832H192.64032A192 192 0 0 1 0.00032 639.744v-511.616C0.00032 21.888000000000034 86.27232-64 192.64032-64h638.72A191.936 191.936 0 0 1 1024.00032 128.12800000000004V639.744A192.384 192.384 0 0 1 831.36032 832z m-21.376-128l-216.832-275.2c-45.504-57.792-116.672-57.92-161.92-0.448L214.08032 704h595.904z m21.376-640H192.64032C156.80032 64 128.00032 92.60799999999995 128.00032 128.12800000000004V606.336l202.688-257.088C377.34432 289.98400000000004 443.45632 256 511.93632 256c69.568 0 134.144 33.28 181.696 93.504L896.00032 606.336v-478.208A63.936 63.936 0 0 0 831.36032 64z"  horiz-adv-x="1024" />

    
    <glyph glyph-name="12" unicode="&#58891;" d="M228 278.84799999999996c1.952-9.568 18.24-22.848 28.544-22.848h510.912c10.112 0 26.624 13.44 28.544 22.848l55.392 272.96-183.136-73.344-155.36 197.152-152.608-197.184-187.904 74.432 55.584-273.984zM12.736 696c-7.04 34.688 14.368 52.064 47.072 39.104l258.176-102.272 115.68 149.44c43.264 55.904 113.664 56.416 157.568 0.736l118.336-150.176 255.328 102.272c32.672 13.088 53.472-4.224 46.4-39.104l-89.824-442.624C907.424 184.12800000000004 838.304 128 767.488 128H256.576c-71.008 0-139.904 55.968-153.984 125.376L12.768 696zM128 704a64 64 0 1 0-127.968-0.032A64 64 0 0 0 128 704z m448 128a64 64 0 1 0-127.968-0.032A64 64 0 0 0 576 832z m448-128a64 64 0 1 0-127.968-0.032A64 64 0 0 0 1024 704zM128 0h768v-127.488H128V0z"  horiz-adv-x="1024" />

    
    <glyph glyph-name="11" unicode="&#58892;" d="M896.38688 128c-0.448 0-0.384 191.616-0.384 191.616C896.00288 319.808 127.61888 320 127.61888 320 128.06688 320 128.00288 128.38400000000001 128.00288 128.38400000000001c0-0.192 768.384-0.384 768.384-0.384zM0.00288 319.616C0.00288 390.528 57.25088 448 127.61888 448h768.768A127.52 127.52 0 0 0 1024.00288 319.616v-191.232C1024.00288 57.47199999999998 966.75488 0 896.38688 0H127.61888A127.52 127.52 0 0 0 0.00288 128.38400000000001v191.232z m256 192.064v-63.36c0-0.224 0.064-0.32 0.544-0.32h510.912c0.256 0 0.544 0.288 0.544 0.32v63.36c0 0.224-0.064 0.32-0.544 0.32H256.54688c-0.256 0-0.544-0.288-0.544-0.32z m-128 0A128.544 128.544 0 0 0 256.54688 640h510.912A128.288 128.288 0 0 0 896.00288 511.68v-63.36A128.544 128.544 0 0 0 767.45888 320H256.54688A128.288 128.288 0 0 0 128.00288 448.32v63.36z m192 192v-63.36c0-0.352-0.064-0.32-0.032-0.32h384.064c0.16 0-0.032-0.192-0.032 0.32V703.6800000000001c0 0.352 0.064 0.32 0.032 0.32H319.97088c-0.16 0 0.032 0.192 0.032-0.32z m-128 0A127.808 127.808 0 0 0 319.97088 832h384.064A128 128 0 0 0 832.00288 703.6800000000001v-63.36A127.808 127.808 0 0 0 704.03488 512H319.97088A128 128 0 0 0 192.00288 640.3199999999999V703.6800000000001z"  horiz-adv-x="1024" />

    
    <glyph glyph-name="13" unicode="&#58893;" d="M896.384 896H127.616C57.28 896 0 838.592 0 767.808v-575.68A128.064 128.064 0 0 1 128.32 64H320l119.04-150.144c44.16-55.744 114.112-54.656 156.608 2.112L706.368 64h189.376A127.776 127.776 0 0 1 1024 192.12800000000004V767.808A127.84 127.84 0 0 1 896.384 896z m-58.88-128.192l-304.576-343.296-105.152 110.656c-12.096 12.736-27.712 19.52-46.656 19.84a63.84 63.84 0 0 1-46.528-20.352L128 313.15200000000004C128 481.984 127.872 768 127.616 768l709.888-0.192zM895.744 192h-253.44l-126.464-169.088L381.888 192s-116.736 0-191.936 0.064l191.872 205.568 106.368-111.808c12.352-12.928 29.632-20.864 47.488-19.84a64.384 64.384 0 0 1 46.848 21.504l313.536 353.408c0-169.472 0.064-448.896-0.32-448.896z"  horiz-adv-x="1024" />

    
    <glyph glyph-name="15" unicode="&#58894;" d="M640 320c-105.856 0-192 86.08-192 192s86.144 192 192 192 192-86.144 192-192-86.144-192-192-192z m0 256c-35.328 0-64-28.736-64-64s28.672-64 64-64 64 28.736 64 64-28.672 64-64 64z m-252.352-576h505.216l-20.992 139.008-9.344-3.52c-126.912-48-317.696-48-444.608 0l-9.28 3.52L387.648 0z m-101.056 187.904c10.624 70.144 72.896 106.624 138.944 81.6l37.632-14.272c97.792-36.992 256.256-36.992 354.048 0l37.696 14.272c66.176 25.024 128.32-10.752 138.944-81.6l28.608-188.992C1033.088-71.23199999999997 983.872-128 913.536-128H366.912c-70.72 0-119.616 56.064-108.928 126.848l28.608 189.056z m79.872-247.68H146.816c-48.768 0-90.24 19.136-116.736 53.888-27.136 35.648-34.88 84.48-21.312 134.144l39.232 167.36c17.536 64 56.896 112.128 111.488 137.792 51.456 24.192 109.696 25.344 165.184 3.136l0.064 0.192 8.576-3.84 1.024-0.384-52.48-116.736-0.128 0.064-0.384 0.192c-23.424 10.432-47.296 10.944-67.264 1.6-20.16-9.536-35.072-28.544-41.984-53.568L132.864 96.63999999999999c-3.968-14.656-2.624-22.72-0.96-24.96 1.024-1.344 5.952-3.456 14.912-3.456h219.584v-128z m13.952 543.744A206.016 206.016 0 0 0 174.4 689.984C174.464 803.5840000000001 266.816 896 380.416 896c38.592 0 76.224-10.752 108.8-31.04l-67.712-108.672a78.08 78.08 0 0 1-77.312-135.424c11.2-5.888 23.424-8.896 36.224-8.896v-128z"  horiz-adv-x="1024" />

    
    <glyph glyph-name="9" unicode="&#58895;" d="M832-128H192c-67.008 0-128 60.992-128 128V768c0 67.008 60.992 128 128 128h128v-128H192c2.752-0.064 0.064-2.624-0.64-4.032L192 0c0.064 2.56 2.688 0.064 4.288-0.576L832 0c-3.008 0.064-0.064 2.752 0.704 4.288L832 768c-0.064-2.688-2.816 0-4.352 0.576L704 768V896h128c67.008 0 128-60.992 128-128v-768c0-67.008-60.992-128-128-128zM608.64 704h-193.28c-34.624 0-74.368 16.512-99.008 41.088L293.504 768H256V896h90.496l60.352-60.352c1.344-0.96 6.976-3.328 9.664-3.712L608.64 832c1.408 0.32 7.168 2.688 9.344 4.416L677.504 896H768v-128h-37.504l-22.848-22.848C683.456 720.896 642.688 704 608.64 704zM640 320h-256a64 64 0 1 0 0 128h256a64 64 0 1 0 0-128z m0 192h-256a64 64 0 1 0 0 128h256a64 64 0 1 0 0-128z m0-384h-256a64 64 0 1 0 0 128h256c35.392 0 64-28.608 64-64s-28.608-64-64-64z"  horiz-adv-x="1024" />

    
    <glyph glyph-name="16" unicode="&#58896;" d="M891.456 40.511999999999944c82.368 90.88 132.928 211.136 132.928 343.488 0 282.176-229.312 512-512.192 512C228.608 896 0 666.688 0 384c0-282.24 229.312-512 512.192-512 132.416 0 252.48 50.432 343.296 132.544a63.68 63.68 0 0 1 35.968 35.968zM896.384 384c0-83.072-26.56-159.808-71.296-222.528L301.248 685.248c-4.224 4.16-9.344 6.72-14.336 9.472A382.304 382.304 0 0 0 512.192 768c211.904 0 384.192-172.288 384.192-384zM128 384c0 84.224 27.328 161.856 73.216 225.088 2.752-4.992 5.312-10.112 9.536-14.336L734.528 71.03999999999996A382.144 382.144 0 0 0 512.192 0C300.224 0 128 172.22400000000005 128 384z"  horiz-adv-x="1024" />

    
    <glyph glyph-name="17" unicode="&#58897;" d="M512 64c-12.352 0-24.704 3.584-35.456 10.752l-64 42.624a64 64 0 0 0-24.448 75.712l32 85.376A64 64 0 0 0 480 320h64c26.688 0 50.56-16.576 59.968-41.536l32-85.376a64 64 0 0 0-24.448-75.712l-64-42.624A64.192 64.192 0 0 0 512 64z m0 320c-141.184 0-256 114.816-256 256s114.816 256 256 256 256-114.816 256-256-114.816-256-256-256z m0 384c-70.592 0-128-57.408-128-128s57.408-128 128-128 128 57.408 128 128-57.408 128-128 128z m349.76-890.368H161.92c-54.4 0-102.016 22.656-130.624 62.08-28.544 39.424-35.2 91.648-18.304 143.168l29.312 89.536a222.272 222.272 0 0 0 112.576 130.432 222.784 222.784 0 0 0 172.16 11.84 64 64 0 0 0-41.088-121.28 95.424 95.424 0 0 1-73.792-5.056c-23.04-11.584-40.128-31.36-48.192-55.808l-29.312-89.536c-3.904-11.968-3.776-22.528 0.32-28.16 4.16-5.76 14.208-9.216 26.944-9.216h699.84c12.864 0 22.976 3.392 27.136 9.088 4.032 5.696 4.096 16.256 0.192 28.288l-29.376 89.536a95.072 95.072 0 0 1-48.128 56 94.24 94.24 0 0 1-73.792 4.864 64 64 0 0 0-81.216 40.064 64.096 64.096 0 0 0 40.064 81.216 221.76 221.76 0 0 0 172.16-11.648 222.4 222.4 0 0 0 112.512-130.624l29.376-89.536c16.96-51.712 10.368-103.872-18.112-143.232-28.608-39.424-76.288-62.016-130.816-62.016z"  horiz-adv-x="1024" />

    
    <glyph glyph-name="18" unicode="&#58898;" d="M128 320c0-35.264 28.736-64 64-64 35.2 0 64 28.736 64 64 0 35.2-28.736 64-64 64-35.2 0-64-28.8-64-64z m-128 0c0 105.984 86.208 192 192 192 106.048 0 192-86.208 192-192 0-106.048-86.208-192-192-192-106.048 0-192 86.144-192 192z m768 0c0-35.264 28.736-64 64-64s64 28.736 64 64c0 35.2-28.736 64-64 64s-64-28.8-64-64z m-128 0c0 105.984 86.208 192 192 192 105.984 0 192-86.208 192-192 0-106.048-86.208-192-192-192-105.984 0-192 86.144-192 192zM64.256 256c-0.704 0-1.344 0-2.048 0.064a64 64 0 0 0-61.952 65.984C6.592 520.448 121.664 895.744 512 895.744s505.344-375.296 511.68-573.696a63.84 63.84 0 0 0-61.76-65.92c-34.048-3.648-64.896 26.432-66.112 61.696-0.704 18.368-20.224 449.92-383.808 449.92-365.248 0-383.168-431.424-383.808-449.792A64 64 0 0 0 64.256 256z m319.808-320c-2.048 0-4.032 0.064-6.144 0.32-246.656 23.488-249.472 184.832-249.472 191.68a64 64 0 0 0 127.936 2.688c0.832-5.248 11.776-55.36 133.696-67.008a64 64 0 0 0-6.016-127.68zM640 0a128 128 0 1 0-256 0 128 128 0 0 0 256 0z"  horiz-adv-x="1024" />

    
    <glyph glyph-name="19" unicode="&#58899;" d="M128 768v-238.464c0-55.552 9.728-61.568 59.776-36.736l152.32 75.776c99.712 49.6 244.288 49.472 343.808 0l152.32-75.776c50.048-24.832 59.776-18.816 59.776 36.736V768H128z m-128 0.064A127.872 127.872 0 0 0 127.616 896h768.768A127.456 127.456 0 0 0 1024 768.064v-238.592c0-150.784-109.888-218.432-244.736-151.36l-152.384 75.84c-63.424 31.552-165.824 31.808-229.76 0l-152.32-75.776c-135.232-67.2-244.8 0.832-244.8 151.36V768.064zM832-64H192a64 64 0 0 0-64 64v256.512a64 64 0 1 0 128 0V64h512v192.512c0 35.392 28.608 64 64 64s64-28.608 64-64V0c0-35.392-28.608-64-64-64z"  horiz-adv-x="1024" />

    
    <glyph glyph-name="20" unicode="&#58900;" d="M128 448.128c0-0.192 767.552-0.128 767.552-0.128 0.384 0 0.448-320.256 0.448-320.256A127.872 127.872 0 0 0 767.744 0H256.192C185.472 0 128 57.408000000000015 128 127.74400000000003V448.128z m-128 0v-320.384C0-13.248000000000047 114.816-128 256.192-128h511.552C909.376-128 1024-13.631999999999948 1024 127.74400000000003V448.128C1024 518.848 966.4 576 895.552 576H128.448C57.6 576 0 518.848 0 448.128zM512 64a64 64 0 0 0-64 64v192a64 64 0 0 0 128 0v-192c0-35.392-28.608-64-64-64z m320 512h-128c0 105.856-86.144 192-192 192s-192-86.144-192-192H192C192 752.448 335.552 896 512 896s320-143.616 320-320z"  horiz-adv-x="1024" />

    
    <glyph glyph-name="22" unicode="&#58901;" d="M192 0.38400000000001455c0-0.256 639.872-0.384 639.872-0.384 0.256 0 0.448 639.616 0.448 639.616C832.32 639.808 192.448 640 192.448 640 192.128 640 192 0.38400000000001455 192 0.38400000000001455zM64 639.616A128.32 128.32 0 0 0 192.448 768h639.424a128.384 128.384 0 0 0 128.448-128.384v-639.232A128.32 128.32 0 0 0 831.872-128H192.448A128.32 128.32 0 0 0 64 0.38400000000001455V639.616zM640 128c-35.392 0-64 28.608-64 64v256a64 64 0 1 0 128 0v-256c0-35.392-28.608-64-64-64z m-256 0a64 64 0 0 0-64 64v256a64 64 0 0 0 128 0v-256a64 64 0 0 0-64-64zM960 640H64a64 64 0 1 0 0 128h896a64 64 0 1 0 0-128zM640 768h-256a64 64 0 1 0 0 128h256a64 64 0 1 0 0-128z"  horiz-adv-x="1024" />

    
    <glyph glyph-name="23" unicode="&#58902;" d="M478.336 389.504c-141.12 0-255.936 113.6-255.936 253.248S337.216 896 478.336 896c141.184 0 256-113.6 256-253.248s-114.816-253.248-256-253.248z m0 378.496c-70.528 0-127.936-56.192-127.936-125.312 0-69.056 57.408-125.248 127.936-125.248s128 56.192 128 125.248c0 69.12-57.472 125.312-128 125.312z m335.296-706.88l-50.816 185.024c-2.816 10.112-3.712 10.624-12.8 6.528l-26.752-11.968c-141.632-63.04-355.968-62.656-497.536 1.216l-22.272 9.984c-9.344 4.224-9.984 3.904-12.672-5.76L140.032 61.120000000000005h673.6zM67.328 280c23.424 85.376 107.648 125.184 188.736 88.576l22.272-9.984c108.416-48.896 284.736-49.088 392.832-0.96l26.752 11.968c80.64 35.904 164.8-3.648 188.352-89.536l61.184-222.976c18.816-68.352-23.104-123.904-93.824-123.904H99.968c-70.592 0-112.576 55.488-93.824 123.904l61.184 222.912z m838.4 167.488a63.936 63.936 0 0 0-48.576 105.6c28.032 32.768 40.896 64 38.144 92.928-3.968 41.472-38.72 71.616-39.104 71.872a64 64 0 1 0 79.744 100.096c7.936-6.336 77.696-64.448 86.72-159.872 6.208-64.832-16.768-128.192-68.224-188.352-12.736-14.72-30.656-22.272-48.704-22.272z"  horiz-adv-x="1024" />

    
    <glyph glyph-name="21" unicode="&#58903;" d="M1001.344 551.168L679.808 871.424A76.064 76.064 0 0 1 573.12 871.552L144.256 444.416c-28.928-28.8-59.904-86.4-67.904-127.552L5.056-68.73599999999999c-8-41.024 16.768-64.512 57.728-56.128l382.4 74.496c40.768 8.256 97.984 38.848 127.424 68.224l428.864 427.008c28.928 28.8 29.376 76.864-0.128 106.304z m-519.04-442.752c-11.648-11.52-46.336-30.08-62.72-33.408l-267.392-52.096 50.048 270.72c2.88 14.464 21.312 49.088 32.32 60.032l204.864 203.968 246.976-245.952-204.096-203.264z m294.848 293.632l-247.04 245.952 96.32 95.936 246.912-245.952-96.192-95.936z"  horiz-adv-x="1024" />

    
    <glyph glyph-name="24" unicode="&#58904;" d="M842.24-47.74400000000003l-43.584 38.848c-25.664 32.64-59.968 68.416-71.872 75.008 3.712-1.984 16.768-6.272 33.344-1.024l-38.656 121.984c11.968 3.84 29.312 9.344 57.664-3.84 3.264 62.912 19.2 78.464 29.44 88.448C865.024 326.592 896 398.272 896 473.728 896 635.9680000000001 752.448 768 576 768c-115.072 0-197.888-74.56-247.104-137.024L228.288 710.144C295.04 794.944 409.536 896 576 896c246.976 0 448-189.376 448-422.272 0-105.728-41.152-205.952-116.16-283.776-2.944-25.28 0.512-90.176 8.128-149.056l5.76-44.032-79.488-44.608z m-500.224 124.096a347.84 347.84 0 0 1 105.984-16.32c178.624 0 320 131.968 320 289.984C768 508.096 626.624 640 448 640S128 508.096 128 350.01599999999996c0-73.984 30.656-143.744 85.824-197.504a150.016 150.016 0 0 0 42.88-74.112c25.664 7.872 52.672 8.32 85.312-2.048zM448-67.96799999999996c-50.688 0-99.392 7.872-144.832 22.4-31.104 9.856-116.608-96.512-144.192-80.832-33.28 18.944-7.616 161.216-34.432 187.264C47.424 135.87199999999996 0 237.76 0 350.01599999999996 0 580.864 200.576 768 448 768s448-187.136 448-417.984c0-230.912-200.576-417.984-448-417.984zM576.896 384H320a64 64 0 1 0 0 128h256.896a64 64 0 1 0 0-128zM512 192h-128a64 64 0 1 0 0 128h128c35.392 0 64-28.608 64-64s-28.608-64-64-64z"  horiz-adv-x="1024" />

    
    <glyph glyph-name="25" unicode="&#58905;" d="M512.96672 426.624c-129.344 0-234.688 105.28-234.688 234.688C278.27872 790.656 383.62272 896 512.96672 896s234.624-105.28 234.624-234.688-105.28-234.688-234.624-234.688zM512.96672 768c-58.816 0-106.688-47.872-106.688-106.688s47.872-106.688 106.688-106.688 106.624 47.872 106.624 106.688S571.78272 768 512.96672 768z m3.776-896H162.43872c-53.76 0-101.696 22.336-131.392 61.248-29.76 39.04-38.656 91.328-24.384 143.424l35.648 129.728c18.304 66.752 60.928 119.616 120 148.864 58.944 29.184 126.656 30.976 190.784 4.992l8.576-3.52c81.664-33.024 220.032-33.024 302.016 0.064l8.32 3.392a63.968 63.968 0 1 0 48.256-118.528l-8.448-3.456c-111.68-45.184-286.656-45.376-398.336-0.064l-8.512 3.52c-29.504 12.032-60.032 11.584-85.824-1.152-25.856-12.8-44.8-36.928-53.312-67.968l-35.648-129.792c-3.712-13.44-2.688-24.832 2.688-31.936 5.376-6.912 15.872-10.816 29.568-10.816h354.24c35.392 0 64-28.608 64-64s-28.608-64-63.936-64zM960.96672 0h-256c-35.392 0-64 28.608-64 64s28.608 64 64 64h256c35.392 0 64-28.608 64-64s-28.608-64-64-64z m-128-128c-35.392 0-64 28.608-64 64v256c0 35.392 28.608 64 64 64s64-28.608 64-64v-256c0-35.392-28.608-64-64-64z"  horiz-adv-x="1024" />

    
    <glyph glyph-name="26" unicode="&#58906;" d="M511.9992-128C229.695641-128 0 101.69564100000002 0 383.9992a63.9999 63.9999 0 0 0 127.9998 0c0-211.711669 172.223731-383.9994 383.9994-383.9994s383.9994 172.223731 383.9994 383.9994S723.774869 767.9986 511.9992 767.9986a381.695404 381.695404 0 0 1-270.911577-111.935825A64.0639 64.0639 0 0 0 150.719765 746.814633 509.023205 509.023205 0 0 0 511.9992 895.9984c282.303559 0 511.9992-229.695641 511.9992-511.9992s-229.695641-511.9992-511.9992-511.9992zM289.535548 527.998975H148.159769c-34.687946 0-67.775894 14.335978-90.687859 39.359939S23.167964 626.6228209999999 26.239959 661.182767l14.911977 168.895736C44.287931 865.278448 75.327882 890.622408 110.527827 888.190412A63.9679 63.9679 0 0 0 168.639737 818.814521L154.303759 655.998775H289.599548a63.9999 63.9999 0 1 0-0.064-127.9998zM767.9988 255.99940000000004h-191.359701A128.703799 128.703799 0 0 0 447.9993 384.575199V575.9989a63.9999 63.9999 0 0 0 127.9998 0v-191.423701L767.9988 383.9992a63.9999 63.9999 0 1 0 0-127.9998z"  horiz-adv-x="1024" />

    
    <glyph glyph-name="27" unicode="&#58907;" d="M128 319.93600000000004a63.68 63.68 0 0 0-39.936 14.08 63.904 63.904 0 0 0-10.048 89.92l254.464 318.272c21.568 26.944 60.48 32 88.192 11.392l206.592-153.792L846.976 872.064a63.904 63.904 0 0 0 89.984 9.6c27.52-22.208 31.808-62.528 9.6-89.984l-258.304-320.128c-21.632-26.752-60.48-31.68-88-11.2l-206.464 153.6-215.808-269.952A63.904 63.904 0 0 0 128 319.93600000000004zM128-128a64 64 0 0 0-64 64v192a64 64 0 1 0 128 0v-192a64 64 0 0 0-64-64z m256 0a64 64 0 0 0-64 64V384a64 64 0 0 0 128 0v-448a64 64 0 0 0-64-64z m256 0c-35.392 0-64 28.608-64 64V256c0 35.392 28.608 64 64 64s64-28.608 64-64v-320c0-35.392-28.608-64-64-64z m256 0c-35.392 0-64 28.608-64 64V512a64 64 0 1 0 128 0v-576c0-35.392-28.608-64-64-64z"  horiz-adv-x="1024" />

    
    <glyph glyph-name="28" unicode="&#58908;" d="M896 0H128a64 64 0 1 0 0 128h768c35.392 0 64-28.608 64-64s-28.608-64-64-64z m0 320H128a64 64 0 1 0 0 128h768a64 64 0 1 0 0-128z m0 320H448a64 64 0 1 0 0 128h448a64 64 0 1 0 0-128zM128 640a63.936 63.936 0 0 0-45.248 109.184l128 128c25.024 25.024 65.472 25.024 90.496 0s25.024-65.472 0-90.496l-128-128C160.768 646.208 144.384 640 128 640z m128-128a63.744 63.744 0 0 0-45.248 18.688l-128 128c-25.024 25.024-25.024 65.472 0 90.496s65.472 25.024 90.496 0l128-128A63.936 63.936 0 0 0 256 512z"  horiz-adv-x="1024" />

    
    <glyph glyph-name="29" unicode="&#58909;" d="M128 565.696v-322.24L372.8 0h278.208L896 245.12V565.76l-190.784 109.312V576c0-70.656-57.344-128-128-128h-129.792c-70.656 0-128 57.344-128 128V675.264L128 565.696zM27.264 163.20000000000005C12.224 178.17600000000004 0 207.36 0 228.60799999999995V601.6c0 21.184 14.848 46.848 33.6 57.6L391.68 864.064c30.848 17.6 55.744 3.52 55.744-32.064v-256h129.728V832c0 35.328 25.344 49.472 55.68 32.064L990.4 659.2c18.624-10.624 33.6-36.224 33.6-57.408v-371.52c0-21.12-12.096-50.368-27.264-65.472l-265.472-265.472c-15.04-15.168-44.736-27.328-65.536-27.328h-307.52c-21.12 0-50.368 12.032-65.472 27.136L27.264 163.20000000000005zM576 128h-128a64 64 0 1 0 0 128h128c35.392 0 64-28.608 64-64s-28.608-64-64-64z"  horiz-adv-x="1024" />

    
    <glyph glyph-name="14" unicode="&#58910;" d="M896.384 896H127.616C57.28 896 0 838.592 0 767.808v-575.68A128.064 128.064 0 0 1 128.32 64H320l119.04-150.144c44.16-55.744 114.112-54.656 156.608 2.112L706.368 64h189.376A127.776 127.776 0 0 1 1024 192.12800000000004V767.808A127.84 127.84 0 0 1 896.384 896z m-0.64-704h-253.44l-126.464-169.088L381.888 192S128 192 128 192.12800000000004C128 192.12800000000004 128 768 127.616 768c0 0 768.384-0.128 768.384-0.192 0 0 0.256-575.808-0.256-575.808zM704 640H320a64 64 0 0 1 0-128h384a64 64 0 1 1 0 128z m-64-192h-256a64 64 0 0 1 0-128h256a64 64 0 0 1 0 128z"  horiz-adv-x="1024" />

    
    <glyph glyph-name="31" unicode="&#58911;" d="M448-128C200.96-128 0 73.024 0 320S200.96 768 448 768a64 64 0 0 0 64-64v-320.64L832 384a64 64 0 0 0 64-64c0-246.976-201.024-448-448-448zM384 633.5360000000001C238.144 603.8399999999999 128 474.56 128 320c0-176.448 143.552-320 320-320 154.56 0 283.84 110.144 313.536 256h-250.112A127.552 127.552 0 0 0 384 383.36V633.5360000000001z m575.744-185.408l-256 0.064a128.064 128.064 0 0 0-127.936 127.936L576 832a64 64 0 0 0 64 64c211.648 0 383.744-172.16 383.744-383.808a64.16 64.16 0 0 0-64-64.064z m-255.808 311.744l-0.128-183.808 183.808 0.064a256.576 256.576 0 0 1-183.68 183.744z"  horiz-adv-x="1024" />

    
    <glyph glyph-name="32" unicode="&#58912;" d="M682.656 220.67200000000003a42.624 42.624 0 0 0-30.176 72.832A127.136 127.136 0 0 1 689.984 384a127.136 127.136 0 0 1-37.504 90.496 42.624 42.624 0 1 0 60.32 60.32A211.936 211.936 0 0 0 775.296 384a211.904 211.904 0 0 0-62.496-150.816 42.56 42.56 0 0 0-30.176-12.512z m113.344-163.36a42.624 42.624 0 0 0-30.176 72.832 336.928 336.928 0 0 1 99.36 239.84c0 90.624-35.296 175.776-99.36 239.872a42.624 42.624 0 1 0 60.32 60.32 421.568 421.568 0 0 0 124.384-300.192c0-113.376-44.16-220-124.384-300.16-8.32-8.352-19.232-12.512-30.176-12.512zM170.656 212.64l114.048-0.096 184.608-125.728V657.792l-174.496-147.2h-124.16v-297.952zM263.648 595.8720000000001l225.696 190.432c36.064 30.464 65.312 16.928 65.312-30.208v-745.344c0-47.104-31.712-63.744-70.24-37.504l-226.048 153.984H170.848a85.536 85.536 0 0 0-85.536 85.408v297.824a85.024 85.024 0 0 0 84.992 85.408h93.312z"  horiz-adv-x="1024" />

    
    <glyph glyph-name="30" unicode="&#58913;" d="M512-128C229.696-128 0 101.69600000000003 0 384S229.696 896 512 896c136.32 0 264.576-52.992 361.28-149.184a64 64 0 1 0-90.304-90.752A381.856 381.856 0 0 1 512 768C300.224 768 128 595.7760000000001 128 384c0-211.712 172.224-384 384-384s384 172.224 384 384a64 64 0 1 0 128 0c0-282.304-229.696-512-512-512z m363.84 656h-141.376a64 64 0 1 0 0 128h135.232l-14.336 162.752A63.968 63.968 0 0 0 913.472 888.128C949.504 890.56 979.776 865.28 982.848 830.08l14.912-168.896a123.2 123.2 0 0 0-31.168-93.76A123.2 123.2 0 0 0 875.84 528z"  horiz-adv-x="1024" />

    
    <glyph glyph-name="33" unicode="&#58914;" d="M512 384c-117.632 0-213.344 95.712-213.344 213.344S394.368 810.688 512 810.688s213.344-95.712 213.344-213.344S629.632 384 512 384z m0 341.344c-70.56 0-128-57.44-128-128s57.44-128 128-128 128 57.44 128 128-57.44 128-128 128z m335.84-682.688l-48.736 180.096c-10.88 40.064-44.512 55.968-82.528 38.816l-17.28-7.84c-108.384-48.992-273.376-48.512-381.696 0.992l-13.312 6.112c-38.112 17.408-71.424 1.824-82.208-38.112l-48.736-180.064h674.464zM139.744 244.99199999999996c24.576 90.912 114.144 132.736 200.064 93.408l13.312-6.112c85.92-39.264 225.184-39.68 311.04-0.864l17.312 7.84c85.856 38.784 175.392-3.424 200.032-94.336l55.552-205.28c12.288-45.44-16.256-82.336-62.976-82.336H147.136c-47.104 0-75.232 36.992-62.944 82.432l55.552 205.216z"  horiz-adv-x="1024" />

    
    <glyph glyph-name="34" unicode="&#58915;" d="M640 384H320a64 64 0 1 0 0 128h320a64 64 0 1 0 0-128z m0-192H320a64 64 0 1 0 0 128h320c35.392 0 64-28.608 64-64s-28.608-64-64-64z m256 448c70.656 0 128 57.344 128 128s-57.344 128-128 128-128-57.344-128-128 57.344-128 128-128z m0-768H64a64 64 0 0 0-64 64V768a64 64 0 0 0 64 64h574.72a64 64 0 1 0 0-128H128v-704h704V507.328a64 64 0 1 0 128 0V-64c0-35.392-28.608-64-64-64z"  horiz-adv-x="1024" />

    
    <glyph glyph-name="36" unicode="&#58916;" d="M512-128C264.96-128 64 73.024 64 320c0 128.768 55.488 251.392 152.256 336.512 26.56 23.36 66.944 20.736 90.304-5.824s20.8-66.944-5.76-90.304A320.32 320.32 0 0 1 192 320c0-176.448 143.552-320 320-320s320 143.552 320 320c0 91.008-38.976 178.048-107.008 238.784-26.368 23.552-28.608 64-5.12 90.368a64.064 64.064 0 0 0 90.368 5.12A448.736 448.736 0 0 0 960 320c0-246.976-201.024-448-448-448z m0 576a64 64 0 0 0-64 64V832a64 64 0 0 0 128 0v-320c0-35.392-28.608-64-64-64z"  horiz-adv-x="1024" />

    
    <glyph glyph-name="35" unicode="&#58917;" d="M512-42.65599999999995c-235.264 0-426.656 191.36-426.656 426.656 0 143.968 71.84 277.248 192.224 356.512a42.688 42.688 0 0 0 46.944-71.264 340.896 340.896 0 0 1-153.824-285.28c0-188.192 153.12-341.344 341.344-341.344s341.344 153.12 341.344 341.344c0 112.896-55.776 218.368-149.12 282.144a42.624 42.624 0 1 0 48.064 70.464 426.944 426.944 0 0 0 186.368-352.64c0-235.296-191.392-426.656-426.656-426.656z m0 512A42.656 42.656 0 0 0 469.344 512V810.656a42.656 42.656 0 0 0 85.312 0V512c0-23.584-19.072-42.656-42.656-42.656z"  horiz-adv-x="1024" />

    
    <glyph glyph-name="38" unicode="&#58918;" d="M192.0001-0.38372000000003936C192.0001 0.000279999999975189 831.6159 0.000279999999975189 831.6159 0.000279999999975189 831.9359 0.000279999999975189 831.9999 584.128097 831.9999 584.128097c0 1.024-6.847998 17.471995-8.063997 18.687995l-156.543952 157.24795a115.327964 115.327964 0 0 1-19.199994 7.935998H192.1921C192.0641 768.00004 192.0001-0.38372000000003936 192.0001-0.38372000000003936zM64.00014 768.3200400000001C64.00014 838.848018 121.536122 896 192.1921 896h455.999857c35.711989 0 84.799974-20.287994 109.951966-45.567986l156.479951-157.247951C939.711866 668.032071 959.99986 619.072087 959.99986 584.128097v-584.063817A128.12796 128.12796 0 0 0 831.6159-127.99968000000001H192.3841C121.472122-127.99968000000001 64.00014-70.719698 64.00014-0.38372000000003936V768.3200400000001zM639.99996 512.0001199999999h-255.99992a63.99998 63.99998 0 1 0 0 127.99996h255.99992a63.99998 63.99998 0 1 0 0-127.99996z m0-191.99994h-255.99992a63.99998 63.99998 0 1 0 0 127.99996h255.99992a63.99998 63.99998 0 1 0 0-127.99996z m0-191.99994h-255.99992a63.99998 63.99998 0 1 0 0 127.99996h255.99992c35.391989 0 63.99998-28.607991 63.99998-63.99998s-28.607991-63.99998-63.99998-63.99998z"  horiz-adv-x="1024" />

    
    <glyph glyph-name="37" unicode="&#58919;" d="M385.306822 88.13885600000003c40.287459-12.831828 82.910886-19.487738 126.686298-19.487738 213.981125 0 383.99484 158.621869 383.99484 349.659301S725.974245 767.96972 511.99312 767.96972 127.99828 609.347852 127.99828 418.310419c0-89.598796 37.119501-174.077661 103.614608-238.780791 29.215607-28.447618 41.66344-58.527214 48.287351-96.382705 32.191567 14.14381 64.73513 17.919759 105.438583 4.959933zM511.99312-59.315162999999984c-57.919222 0-113.598474 8.95988-165.533776 25.503657-35.519523 11.327848-133.278209-110.302518-164.765786-92.382758-37.98349 21.631709-8.703883 184.221525-39.327471 214.013124C54.207272 173.60970699999996 0.032 290.056142 0.032 418.310419c0 263.804455 229.21292 477.657581 511.99312 477.657581s511.99312-213.853126 511.99312-477.657581-229.21292-477.657581-511.99312-477.657582zM447.99398 416.00645a95.99871 95.99871 0 1 0-191.99742 0 95.99871 95.99871 0 0 0 191.99742 0z m319.9957 0a95.99871 95.99871 0 1 0-191.99742 0 95.99871 95.99871 0 0 0 191.99742 0z"  horiz-adv-x="1024" />

    
    <glyph glyph-name="39" unicode="&#58920;" d="M725.056-115.77599999999995a200.32 200.32 0 0 0-166.4 88.32l-93.12 137.984c-134.656-4.416-262.912 58.944-338.112 170.496a388.8 388.8 0 0 0-27.008 386.432l48.576 99.776 92.48-137.152a95.712 95.712 0 0 1 79.616-42.176 96.032 96.032 0 0 1 79.552 149.568L307.84 874.88l109.12 8.896a388.576 388.576 0 0 0 352.832-169.472 388.832 388.832 0 0 0 29.696-380.864l92.032-136.32c61.824-91.712 37.44-216.64-54.272-278.528a200 200 0 0 0-112.192-34.368z m-197.248 362.944l137.024-203.008c21.504-31.872 68.352-41.408 100.736-19.52a72.736 72.736 0 0 1 19.776 100.8l-136.448 202.24 21.312 35.072a260.16 260.16 0 0 1-6.592 279.936 259.296 259.296 0 0 1-126.144 98.624 224.32 224.32 0 0 0-91.328-243.072 222.624 222.624 0 0 0-125.12-38.336 223.68 223.68 0 0 0-131.648 42.624 259.84 259.84 0 0 1 44.16-149.952c55.488-82.368 155.008-126.336 254.208-111.488l40.064 6.08z"  horiz-adv-x="1024" />

    
    <glyph glyph-name="40" unicode="&#58921;" d="M960-128a63.84 63.84 0 0 0-45.248 18.752l-256 256c-25.024 25.024-25.024 65.472 0 90.496s65.472 25.024 90.496 0l256-256A63.936 63.936 0 0 0 960-128z m-544 192C186.624 64 0 250.62400000000002 0 480 0 709.312 186.624 896 416 896s416-186.688 416-416c0-229.376-186.624-416-416-416z m0 704c-158.784 0-288-129.216-288-288s129.216-288 288-288 288 129.216 288 288-129.216 288-288 288z"  horiz-adv-x="1024" />

    
    <glyph glyph-name="41" unicode="&#58922;" d="M213.12 242.72000000000003c-1.664-0.256-3.328-0.512-4.992-0.672 3.552 0.416 4.448 0.16 5.088 0.864l-19.584-41.952h639.84l-19.808 45.44c1.664-3.744 2.144-3.584 7.776-4.256-2.144 0.256-4.256 0.608-6.304 0.896-62.944 11.008-110.464 67.36-110.464 131.68V587.232c0 99.2-84.32 180.768-189.824 180.768-105.216 0-189.792-81.696-189.792-180.768v-212.576c0-64.864-48.128-121.472-111.904-131.936zM789.984 587.232v-212.448c0-23.52 18.784-45.056 42.016-47.968 23.328-2.912 49.536-22.56 58.848-44l38.944-89.344c18.688-42.912-4.192-77.856-51.104-77.856H144.832c-46.752 0-68.896 34.656-49.024 77.312l41.888 89.888c9.856 21.152 36.864 41.088 60.064 43.904 23.328 2.912 41.984 24.32 41.984 47.904V587.2c-0.032 146.976 123.424 266.112 275.072 266.112 151.968 0 275.168-119.072 275.168-266.112zM512-64.89599999999996c-84.48 0-120.096 64.768-127.104 98.976a42.72 42.72 0 0 0 33.184 50.4 42.752 42.752 0 0 0 50.272-32.608c2.4-9.568 11.392-31.456 43.648-31.456 36.192 0 42.88 27.648 43.552 30.848a42.784 42.784 0 0 0 50.4 33.184 42.624 42.624 0 0 0 33.184-50.4c-7.072-34.272-42.72-98.976-127.136-98.976z"  horiz-adv-x="1024" />

    
    <glyph glyph-name="43" unicode="&#58923;" d="M512.83808 0C221.44608 0 34.43808 285.82399999999996 26.63008 297.98400000000004c-35.776 46.272-36.032 123.52 2.432 175.488C34.43808 482.112 221.44608 768 512.83808 768c291.456 0 478.4-285.824 486.272-297.984 35.712-46.272 35.968-123.52-2.432-175.488-5.44-8.704-192.384-294.528-483.84-294.528z m0 640C290.56608 640 135.87808 403.2 134.34208 400.832c-7.04-9.856-6.72-24.512-3.072-29.312 4.544-6.656 160.64-243.52 381.568-243.52 222.336 0 377.024 236.8 378.56 239.168 6.976 9.728 6.656 24.448 3.008 29.312C889.92608 403.072 733.76608 640 512.83808 640zM512.96608 192c-105.856 0-192 86.144-192 192s86.144 192 192 192 192-86.144 192-192-86.144-192-192-192z m0 256c-35.264 0-64-28.736-64-64s28.736-64 64-64a64 64 0 0 1 0 128z"  horiz-adv-x="1025" />

    
    <glyph glyph-name="42" unicode="&#58924;" d="M211.771643 255.12054999999998c-13.687445-7.995003-28.270331-14.518926-43.684697-19.124048l-39.655216-12.024485c1.726921 0.57564 2.750281 0.6396 3.325921 0.575641 0.57564 1.21524 0.70356 2.238601 1.215241 3.965521l-5.244722-16.885446c4.477202 14.454966-16.757527 43.492817-32.235853 43.492817H927.420362c-11.640725 0-26.79925-16.885447-30.764772-31.212493a20.371268 20.371268 0 0 1-0.44772-11.001124l-4.988882 16.885447c0.83148-2.750281 0.89544-3.901562 1.023361-4.477202 1.02336-0.70356 2.046721-0.76752 4.413241-1.343161l-40.678576 12.344285a192.231855 192.231855 0 0 0-43.173016 18.868208c-64.791505 37.736415-108.540162 110.331043-108.540163 186.123672V636.770019l0.44772 10.681324c3.517801 42.085696-101.95228 120.564647-192.071955 120.564647-121.268207 0-194.758276-64.087945-192.263835-131.821611v-195.142037c0-75.85659-43.620737-148.067458-108.604122-185.931792z m620.412242 381.649469V441.244222c0-35.433854 27.183011-72.402748 60.762024-82.572392l41.637976-12.600125c33.834853-10.233604 69.012867-45.795378 79.118551-79.566271l4.988882-16.885446c20.211368-67.733666-20.595128-122.419488-91.334916-122.419488H95.556277c-70.995628 0-110.970643 54.749781-89.927795 122.419488l5.244722 16.885446c10.361524 33.323173 46.562898 69.588507 80.461712 79.822111l39.655215 12.088445c34.602374 10.489444 61.465584 47.330418 61.465584 82.700312V636.258339C187.466833 767.6322299999999 312.060962 896 512.6396 896c142.055215-0.06396 331.185009-119.541287 319.544285-259.229981zM511.6802-128c-118.965646 0-196.677077 74.193629-205.1198 82.700312a63.896065 63.896065 0 0 0 0 90.439476 63.896065 63.896065 0 0 0 90.119675 0.38376C398.598876 43.66870700000004 445.801374-0.07995000000005348 511.6802-0.07995000000005348c66.454466 0 114.232605 44.772017 114.680325 45.219738 25.00837 25.00837 65.431106 25.00837 90.439475 0s25.00837-65.431106 0-90.439476C708.357277-53.80637100000001 630.645846-128 511.6802-128z"  horiz-adv-x="1024" />

    
    <glyph glyph-name="44" unicode="&#58925;" d="M128 384c0-211.712 172.128-384 384-384 211.712 0 384 172.128 384 384 0 211.712-172.128 384-384 384C300.288 768 128 595.8720000000001 128 384z m-128 0C0 666.784 229.792 896 512 896c282.784 0 512-229.792 512-512 0-282.784-229.792-512-512-512-282.784 0-512 229.792-512 512z m511.36 61.6l-73.984-71.488 72.96-75.136 74.752 74.752-73.728 71.872z m0.384 178.4l255.552-249.088-258.272-258.272-252.832 260.352L511.744 624z"  horiz-adv-x="1024" />

    
    <glyph glyph-name="45" unicode="&#58926;" d="M512 830.912a64 64 0 0 1-64-64V0a64 64 0 1 1 128 0V766.912c0 35.392-28.608 64-64 64z m-210.688-17.664a64.128 64.128 0 0 1-90.56 0.064l-192-191.616A64.128 64.128 0 0 1 64 512.3199999999999a64 64 0 0 1 45.248 18.688L192 613.6320000000001V0a64 64 0 1 1 128 0V766.912l-0.064 0.448a64 64 0 0 1-18.624 45.888z m704-575.232a63.808 63.808 0 0 1-90.496 0.192L832 155.58399999999995V766.912a64 64 0 1 1-128 0V0c0-35.392 28.608-64 64-64 19.52 0 36.288 9.152 48 22.784l189.184 188.736a63.936 63.936 0 0 1 0.128 90.496z"  horiz-adv-x="1024" />

    
    <glyph glyph-name="46" unicode="&#58927;" d="M991.387133 634.697717l-447.983341 252.918595a63.74163 63.74163 0 0 1-62.90966 0l-447.983341-252.918595A63.869625 63.869625 0 0 1 0 578.95579v-450.223257c0-25.599048 15.231434-48.766187 38.71856-58.877811l447.983341-192.760831a65.053581 65.053581 0 0 1 50.622117 0.063997l447.983341 192.760832A63.933622 63.933622 0 0 1 1023.961921 128.66853500000002V578.95579c0 23.167138-12.351541 44.478346-32.574788 55.741927zM127.99524 541.58118L511.980961 758.405117l299.572859-169.14571-334.643555-219.191849A63.933622 63.933622 0 0 1 447.983341 316.50154999999995v-283.317464L127.99524 170.90696400000002V541.58118z m447.983341-508.333096v248.758749l319.9881 209.592206V170.90696400000002l-319.9881-137.65888z"  horiz-adv-x="1024" />

    
    <glyph glyph-name="47" unicode="&#58928;" d="M1009.92 546.624c7.808 15.68 14.08 42.304 14.08 59.712V639.6800000000001A192.224 192.224 0 0 1 831.36 832H192.64A191.904 191.904 0 0 1 0 639.9359999999999v-34.88c0-17.856 6.592-44.608 14.656-60.48l52.864-103.808c15.936-31.296 16-82.176 0-113.472L14.656 223.808C6.336 207.36 0 180.736 0 163.264v-34.88A192.64 192.64 0 0 1 192.64-64h638.72A191.808 191.808 0 0 1 1024 127.87199999999996v33.28c0 17.728-6.4 44.096-14.08 59.776l-52.672 105.664c-15.744 31.616-15.744 83.072 0 114.688l52.672 105.344zM896 606.336c0 2.368-1.6-4.672-0.576-2.496l-52.672-105.408c-33.728-67.584-33.728-161.344-0.064-228.928l52.672-105.728c-0.96 1.984 0.64-4.928 0.64-2.624v-33.28C896 92.28800000000001 867.52 64 831.36 64H192.64A64.544 64.544 0 0 0 128 128.38400000000001v34.88c0-2.496 1.6 4.096 0.64 2.24l52.864 103.616c34.624 67.648 34.56 161.856 0.064 229.632L128.704 602.624c0.96-1.92-0.704 5.056-0.704 2.432v34.88C128 675.52 156.48 704 192.64 704h638.72C867.328 704 896 675.328 896 639.6800000000001v-33.344zM640 448h-64v24.32l92.672 46.336a64 64 0 1 1-57.344 114.496L512 583.488l-99.392 49.728a64.064 64.064 0 0 1-57.216-114.56L448 472.384V448h-64a64 64 0 0 1 0-128h64v-128a64 64 0 1 1 128 0v128h64a64 64 0 0 1 0 128z"  horiz-adv-x="1024" />

    
    <glyph glyph-name="48" unicode="&#58929;" d="M512 0c212.032 0 384 171.904 384 384 0 212.032-171.968 384-384 384S128 596.0319999999999 128 384c0-212.096 171.968-384 384-384z m0-128C229.248-128 0 101.18399999999997 0 384S229.248 896 512 896s512-229.248 512-512-229.248-512-512-512z m165.952 287.36a64 64 0 0 0-29.952 7.424l-165.952 88A64.128 64.128 0 0 0 448 311.36V631.168a64 64 0 0 0 128 0v-281.28l131.968-69.952a64.096 64.096 0 0 0 26.56-86.592 64.096 64.096 0 0 0-56.576-33.984z"  horiz-adv-x="1024" />

    
    <glyph glyph-name="50" unicode="&#58930;" d="M522.688 362.624c-135.296 0-245.312 110.08-245.312 245.312s110.016 245.312 245.312 245.312S768 743.232 768 608s-110.08-245.376-245.312-245.376z m0 362.688c-64.704 0-117.312-52.608-117.312-117.312s52.608-117.312 117.312-117.312a117.344 117.344 0 0 1 0 234.624zM866.752 0l-43.392 209.344c-4.992 24.192-13.632 28.544-35.392 18.816l-10.496-4.736c-152.384-68.864-384.256-68.352-536.576 1.28l-5.76 2.624c-21.632 9.856-30.08 5.632-34.88-17.792L157.056 0h709.696zM74.88 235.264c21.44 104 116.992 152.576 213.504 108.352l5.76-2.624c118.848-54.4 312.064-54.656 430.592-1.024l10.496 4.736c96.384 43.52 191.808-4.992 213.504-109.504l49.344-238.144C1012.352-72 966.72-128 896.384-128H127.616C57.088-128 11.52-72.12800000000004 25.792-2.8799999999999955l49.088 238.144z"  horiz-adv-x="1024" />

    
    <glyph glyph-name="49" unicode="&#58931;" d="M895.994-0.0019999999999527063H128.006a63.999 63.999 0 1 0 0 127.998h767.988c35.391447 0 63.999-28.607553 63.999-63.999s-28.607553-63.999-63.999-63.999z m0 319.995H128.006a63.999 63.999 0 1 0 0 127.998h767.988a63.999 63.999 0 1 0 0-127.998zM575.999 639.988H128.006a63.999 63.999 0 0 0 0 127.998h447.993a63.999 63.999 0 1 0 0-127.998z m319.995 0a63.839003 63.839003 0 0 0-45.247293 18.751707l-127.998 127.998c-25.023609 25.023609-25.023609 65.470977 0 90.494586s65.470977 25.023609 90.494586 0l127.998-127.998A63.935001 63.935001 0 0 0 895.994 639.988z m-127.998-127.998a63.935001 63.935001 0 0 0-45.247293 109.246293l127.998 127.998c25.023609 25.023609 65.470977 25.023609 90.494586 0s25.023609-65.470977 0-90.494586l-127.998-127.998c-12.479805-12.543804-28.863549-18.751707-45.247293-18.751707z"  horiz-adv-x="1024" />

    
    <glyph glyph-name="51" unicode="&#58932;" d="M832 320h-256v64h256a64 64 0 1 1 0 128h-256v33.216l296 236.8A64 64 0 0 1 792 881.92L512 657.856l-280 224a64 64 0 0 1-89.92-9.984 63.904 63.904 0 0 1 9.92-89.92L448 545.216V512H192a64 64 0 0 1 0-128h256v-64H192a64 64 0 1 1 0-128h256v-256a64 64 0 1 1 128 0v256h256c35.392 0 64 28.608 64 64s-28.608 64-64 64z"  horiz-adv-x="1024" />

    
    <glyph glyph-name="52" unicode="&#58933;" d="M128 0h768V768H128v-768zM0 768.3199999999999C0 838.848 57.28 896 127.616 896h768.768A127.744 127.744 0 0 0 1024 768.3199999999999v-768.704A127.712 127.712 0 0 0 896.384-128H127.616A127.712 127.712 0 0 0 0-0.38400000000001455V768.3199999999999z m409.728-642.496c-44.544 0-89.728 34.624-89.728 100.8V603.2C320 669.312 365.12 704 409.664 704c21.376 0 43.328-7.68 63.488-22.208l247.232-177.728c30.592-21.952 48.128-54.464 48.128-89.152s-17.472-67.136-48.128-89.216l-247.232-177.728c-20.16-14.528-42.048-22.144-63.424-22.144zM448 542.2080000000001v-254.656l177.152 127.296L448 542.2080000000001z"  horiz-adv-x="1024" />

    
    <glyph glyph-name="53" unicode="&#58934;" d="M831.616 896H192.384C121.408 896 64 838.784 64 768.256v-768.64C64-70.72000000000003 121.472-128 192.384-128h639.232C902.656-128 960-70.84799999999996 960-0.38400000000001455V768.256C960 838.656 902.528 896 831.616 896zM832 768.256s0-288.768-0.128-512.256H192c0.064 223.424 0.128 512 0.32 512C192.384 768 832 767.936 832 768.256zM192-0.38400000000001455V128h639.808c-0.064-76.288-0.128-128-0.192-128 0 0-639.616 0-639.616-0.384zM576 64a64 64 0 1 0-127.968-0.032A64 64 0 0 0 576 64z"  horiz-adv-x="1024" />

    
    <glyph glyph-name="54" unicode="&#58935;" d="M128 512.576l190.976-0.128 0.128 190.976-190.976 0.128L128 512.576zM0 703.424a128.256 128.256 0 0 0 128.128 128.128h190.848a128.256 128.256 0 0 0 128.128-128.128v-190.848a128.256 128.256 0 0 0-128.128-128.128H128.128A128.256 128.256 0 0 0 0 512.576V703.424z m640-191.968c0-0.576 191.616-0.384 191.616-0.384 0.576 0 0.384 191.616 0.384 191.616 0 0.576-191.616 0.384-191.616 0.384-0.576 0-0.384-191.616-0.384-191.616zM512 702.72a127.904 127.904 0 0 0 128.384 128.384h191.232A127.904 127.904 0 0 0 960 702.72v-191.232a127.904 127.904 0 0 0-128.384-128.384h-191.232A127.904 127.904 0 0 0 512 511.488V702.72zM128 0.5760000000000218l190.976-0.128 0.128 190.976-190.976 0.128L128 0.5760000000000218z m-128 190.848a128.256 128.256 0 0 0 128.128 128.128h190.848a128.256 128.256 0 0 0 128.128-128.128v-190.848a128.256 128.256 0 0 0-128.128-128.128H128.128A128.256 128.256 0 0 0 0 0.5760000000000218v190.848z m640.928-190.848l190.976-0.128 0.128 190.976-190.976 0.128-0.128-190.976z m-128 190.848a128.256 128.256 0 0 0 128.128 128.128h190.848a128.256 128.256 0 0 0 128.128-128.128v-190.848a128.256 128.256 0 0 0-128.128-128.128h-190.848a128.256 128.256 0 0 0-128.128 128.128v190.848z"  horiz-adv-x="1024" />

    
    <glyph glyph-name="55" unicode="&#58936;" d="M831.359861 895.99968H192.640459A192.22382 192.22382 0 0 1 0.00064 703.359861v-638.719402A192.19182 192.19182 0 0 1 192.640459-127.99936000000002h638.719402A192.22382 192.22382 0 0 1 1023.99968 64.64045899999996V703.359861A192.25582 192.25582 0 0 1 831.359861 895.99968zM192.640459 767.9998h638.719402C867.327827 767.9998 895.9998 739.391827 895.9998 703.359861V192.00034000000005H128.00052V703.359861C128.00052 739.263827 156.544493 767.9998 192.640459 767.9998z m638.719402-767.99928H192.640459a64.06394 64.06394 0 0 0-64.511939 63.99994h767.74328a64.15994 64.15994 0 0 0-64.511939-63.99994z m-315.519705 319.9997C700.799983 320.00022 767.99992 473.088076 767.99992 575.99998a63.99994 63.99994 0 0 1-127.99988 0c0-21.37598-6.015994-127.99988-124.159884-127.99988-118.591889 0-130.687877 108.863898-131.903876 130.879877A63.80794 63.80794 0 0 1 317.440342 639.87192a63.93594 63.93594 0 0 1-61.375942-66.495938C259.520397 485.760065 318.336342 320.00022 515.840156 320.00022z"  horiz-adv-x="1024" />

    
    <glyph glyph-name="56" unicode="&#58937;" d="M128.00052 703.359541v-638.719402C128.00052 28.480173000000036 156.608493 0.0001999999999497959 192.640459 0.0001999999999497959h638.719402c36.031966 0 64.639939 28.607973 64.639939 64.639939V703.359541C895.9998 739.391507 867.391827 767.99948 831.359861 767.99948H192.640459C156.544493 767.99948 128.00052 739.327507 128.00052 703.359541z m-127.99988 0A192.19182 192.19182 0 0 0 192.640459 895.99936h638.719402A192.22382 192.22382 0 0 0 1023.99968 703.359541v-638.719402A192.22382 192.22382 0 0 0 831.359861-127.99968000000001H192.640459A192.19182 192.19182 0 0 0 0.00064 64.64013899999998V703.359541zM515.840156 319.9999c-197.503815 0-256.31976 165.759845-259.775756 253.439762A63.99994 63.99994 0 0 0 317.440342 639.9356c35.199967 1.663998 64.895939-25.919976 66.495938-60.991943 1.215999-22.079979 13.311988-130.943877 131.903876-130.943877 118.143889 0 124.159884 106.6239 124.159884 127.99988a63.99994 63.99994 0 1 0 127.99988 0c0-102.911904-67.199937-255.99976-252.159764-255.99976z"  horiz-adv-x="1024" />

    
    <glyph glyph-name="58" unicode="&#58938;" d="M448.608139 0.0019600000000536966c-0.224 0-0.607999 251.61545-0.607999 251.61545a63.99986 63.99986 0 0 1-10.655977 35.359922L216.928645 619.296605C204.288673 638.336564 192.0007 678.9764749999999 192.0007 701.248426V704.320419C192.0007 703.8084200000001 831.8393 704.00042 831.8393 704.00042a21.215954 21.215954 0 0 1 0.16-3.487992c0-22.91195-12.255973-63.455861-24.863946-82.39982l-220.415517-330.943276A63.87186 63.87186 0 0 1 575.99986 251.68140900000003v-251.775449L448.608139 0.0019600000000536966zM320.00042-0.12603999999998905C320.00042-70.49388599999997 377.856293-127.99775999999997 448.608139-127.99775999999997h126.815722a127.90372 127.90372 0 0 1 128.607719 127.87172V232.32145200000002l209.663541 314.847311c26.623942 39.967913 46.335899 105.18377 46.335899 153.343665v3.103993c0 70.495846-57.407874 128.415719-128.15972 128.415719H192.1927c-70.303846 0-128.15972-57.119875-128.15972-127.679721v-3.071993c0-47.487896 19.743957-112.735753 46.271899-152.703666l209.727541-316.223308v-232.447492z"  horiz-adv-x="1024" />

    
    <glyph glyph-name="57" unicode="&#58939;" d="M128 384c0-211.712 172.224-384 384.192-384a383.648 383.648 0 0 1 384.192 384c0 211.712-172.224 384-384.192 384A383.648 383.648 0 0 1 128 384z m-128 0C0 666.784 228.608 896 512.192 896c282.88 0 512.192-229.792 512.192-512 0-282.784-228.608-512-512.192-512C229.312-128 0 101.79200000000003 0 384z m343.136-20.928a64.032 64.032 0 0 1-73.888-104.544l170.208-120.256a64 64 0 0 1 90.464 17.184l233.088 355.712a64 64 0 0 1-107.072 70.144l-196.768-300.256-116.064 82.016z"  horiz-adv-x="1024" />

    
    <glyph glyph-name="61" unicode="&#58940;" d="M512-128c282.784 0 512 229.216 512 512S794.784 896 512 896 0 666.784 0 384s229.216-512 512-512z m0 128C299.936 0 128 171.93600000000004 128 384S299.936 768 512 768s384-171.936 384-384-171.936-384-384-384z m0 256a128 128 0 1 1 0 256 128 128 0 0 1 0-256z"  horiz-adv-x="1024" />

    
    <glyph glyph-name="59" unicode="&#58941;" d="M596.832 149.18399999999997l-53.376 53.664a188.544 188.544 0 0 0-217.728 218.88L233.92 514.0160000000001a704.192 704.192 0 0 1-68.192-73.088c-13.536-16.768-22.656-29.44-27.552-36.992-4.608-6.816-4.64-23.424 1.408-31.776 4.16-6.464 13.152-19.104 26.56-35.808a688.832 688.832 0 0 1 78.88-83.04c82.304-73.088 172.16-116.032 266.208-116.032 28.864 0 57.376 4.064 85.6 11.904z m97.792-98.304c-58.848-25.536-120.128-39.296-183.392-39.296-129.184 0-246.368 55.968-349.696 147.744-60.544 53.792-103.712 107.488-125.184 141.184-36.384 48.608-36.288 123.744-2.976 172.864 21.984 33.888 59.712 81.184 111.808 129.792l-10.912 10.976a62.816 62.816 0 1 0 89.088 88.64l584.128-587.2a62.816 62.816 0 1 0-89.088-88.64l-23.808 23.904z m5.28 337.792a62.848 62.848 0 1 0-125.696 0 62.944 62.944 0 0 1-62.848 62.848 62.848 62.848 0 1 0 0 125.696 188.704 188.704 0 0 0 188.544-188.544z m177.376-214.432a62.816 62.816 0 1 0-86.048 91.616 692.992 692.992 0 0 1 69.12 75.328c11.68 14.784 19.488 25.792 25.28 34.56 4.256 5.76 4.256 20.064-2.72 29.472-4.16 6.464-13.152 19.104-26.56 35.808a688.832 688.832 0 0 1-78.88 83.04c-82.304 73.088-172.16 116.032-266.208 116.032a309.76 309.76 0 0 1-51.84-4.384c-21.408-3.616-42.656-9.44-63.712-17.344a62.88 62.88 0 0 0-44.192 117.664 469.344 469.344 0 0 0 86.976 23.616 438.4 438.4 0 0 0 72.736 6.112c129.184 0 246.368-55.968 349.696-147.744 60.544-53.792 103.712-107.488 124.736-140.608 38.368-49.984 38.304-125.824 3.424-172.992-20.992-32.608-58.752-80.384-111.776-130.176z"  horiz-adv-x="1024" />

    
    <glyph glyph-name="62" unicode="&#58942;" d="M128 0h768V768H128v-768zM0 768.384A127.68 127.68 0 0 0 127.616 896h768.768A127.68 127.68 0 0 0 1024 768.384v-768.768A127.68 127.68 0 0 0 896.384-128H127.616A127.68 127.68 0 0 0 0-0.38400000000001455V768.384z m364-422.976a64 64 0 1 1-88-92.928l112.928-106.944a64 64 0 0 1 96.288 9.536l269.152 380.992a63.968 63.968 0 1 1-104.544 73.824l-226.528-320.64-59.264 56.128z"  horiz-adv-x="1024" />

    
    <glyph glyph-name="63" unicode="&#58943;" d="M73.184 310.84799999999996h146.272a73.152 73.152 0 0 1 0 146.304H73.184a73.152 73.152 0 0 1 0-146.304z m731.424 0h146.272a73.152 73.152 0 0 1 0 146.304h-146.272a73.152 73.152 0 0 1 0-146.304z m-365.728 0h146.272a73.152 73.152 0 0 1 0 146.304h-146.272a73.152 73.152 0 0 1 0-146.304zM73.184-128h877.728a73.152 73.152 0 0 1 0 146.304H73.184a73.152 73.152 0 0 1 0-146.304z m0 877.728h877.728a73.152 73.152 0 0 1 0 146.304H73.184a73.152 73.152 0 0 1 0-146.304z"  horiz-adv-x="1024" />

    
    <glyph glyph-name="64" unicode="&#58944;" d="M767.803501-0.0007500000000391083H256.254499c-70.847585 0-128.255249 57.343664-128.255249 127.93525V447.996625h767.9955V127.93449999999996c0-70.655586-57.279664-127.93525-128.191249-127.93525zM127.99925 576.0598749999999c0 70.655586 57.215665 127.807251 127.99925 127.93525 0.064-35.327793 28.671832-63.999625 63.999625-63.999625 35.391793 0 63.999625 28.671832 63.999625 63.999625h255.9985c0-35.327793 28.671832-63.999625 63.999625-63.999625 35.391793 0 63.999625 28.671832 63.999625 63.999625 70.783585-0.127999 127.99925-57.343664 127.99925-127.93525v-0.064l-767.9955 0.064z m895.99475 0c0 141.311172-114.623328 255.806501-255.9985 255.9345 0 35.327793-28.607832 63.999625-63.999625 63.999625-35.327793 0-63.999625-28.671832-63.999625-63.999625h-255.9985c0 35.327793-28.607832 63.999625-63.999625 63.999625-35.327793 0-63.999625-28.671832-63.999625-63.999625-141.439171-0.127999-255.9985-114.623328-255.9985-255.9345V127.93449999999996c0-141.375172 114.751328-255.9345 256.254499-255.9345h511.549002c141.567171 0 256.190499 114.495329 256.190499 255.9345V576.0598749999999zM224.344686 384.003c-18.623891 0-32.319811-14.463915-32.319811-32.255811v-63.423628c0-18.687891 14.463915-32.319811 32.319811-32.319811h63.359628c18.623891 0 32.319811 14.463915 32.319811 32.319811v63.423628c0 18.559891-14.463915 32.255811-32.319811 32.255811h-63.359628zM480.343186 384.003c-18.623891 0-32.319811-14.463915-32.319811-32.255811v-63.423628c0-18.687891 14.463915-32.319811 32.319811-32.319811h63.359628c18.623891 0 32.319811 14.463915 32.319811 32.319811v63.423628c0 18.559891-14.463915 32.255811-32.319811 32.255811h-63.359628zM736.341686 384.003c-18.623891 0-32.319811-14.463915-32.319811-32.255811v-63.423628c0-18.687891 14.463915-32.319811 32.319811-32.319811h63.359628c18.623891 0 32.319811 14.463915 32.319811 32.319811v63.423628c0 18.559891-14.527915 32.255811-32.319811 32.255811h-63.359628zM224.344686 192.00412500000004c-18.623891 0-32.319811-14.463915-32.319811-32.319811v-63.423628c0-18.559891 14.463915-32.319811 32.319811-32.319811h63.359628c18.623891 0 32.319811 14.463915 32.319811 32.319811V159.68431399999997c0 18.623891-14.463915 32.319811-32.319811 32.319811h-63.359628zM480.343186 192.00412500000004c-18.623891 0-32.319811-14.463915-32.319811-32.319811v-63.423628c0-18.559891 14.463915-32.319811 32.319811-32.319811h63.359628c18.623891 0 32.319811 14.463915 32.319811 32.319811V159.68431399999997c0 18.623891-14.463915 32.319811-32.319811 32.319811h-63.359628zM736.341686 192.00412500000004c-18.623891 0-32.319811-14.463915-32.319811-32.319811v-63.423628c0-18.559891 14.463915-32.319811 32.319811-32.319811h63.359628c18.623891 0 32.319811 14.463915 32.319811 32.319811V159.68431399999997c0 18.623891-14.527915 32.319811-32.319811 32.319811h-63.359628z"  horiz-adv-x="1024" />

    
    <glyph glyph-name="66" unicode="&#58945;" d="M512-128c282.784 0 512 229.216 512 512S794.784 896 512 896 0 666.784 0 384s229.216-512 512-512z m0 128C299.936 0 128 171.93600000000004 128 384S299.936 768 512 768s384-171.936 384-384-171.936-384-384-384zM448 640v-512a64 64 0 1 1 128 0V640a64 64 0 1 1-128 0z m18.752 45.248l-128-128a64 64 0 1 1 90.496-90.496l128 128a64 64 0 1 1-90.496 90.496z"  horiz-adv-x="1024" />

    
    <glyph glyph-name="65" unicode="&#58946;" d="M638.20512 768h193.696C867.32512 768 896.02912 739.232 896.02912 703.616v-639.264c0-35.584-28.8-64.384-64.384-64.384H192.38112a64.224 64.224 0 0 0-64.384 64.48v227.424h-128v-227.424a192.192 192.192 0 0 1 192.384-192.48h639.264A192.32 192.32 0 0 1 1024.02912 64.35199999999998V703.616A192.192 192.192 0 0 1 831.90112 896h-193.696v-128z m-175.808-386.432a61.568 61.568 0 0 1-77.792-4.032l-301.856-277.28c-24.064-22.08-25.056-58.88-2.208-82.176s60.832-24.256 84.896-2.144l264.768 243.168 187.616-138.656a61.44 61.44 0 0 1 82.528 8.928l271.808 315.104c21.248 24.64 17.856 61.28-7.616 81.856s-63.328 17.28-84.576-7.36l-234.976-272.384-182.592 134.944zM128.02912 704v-192a64 64 0 1 1 128 0V704a64 64 0 1 1-128 0zM0.02912 384v-128a64 64 0 1 1 128 0v128a64 64 0 1 1-128 0zM512.02912 768h128a64 64 0 1 1 0 128h-128a64 64 0 1 1 0-128zM274.78112 659.5840000000001a64 64 0 1 1 90.496 90.496L238.07712 877.216A64 64 0 0 1 147.70912 877.344l-128.8-128A63.968 63.968 0 1 1 109.11712 658.56l83.584 83.04 82.08-82.048z"  horiz-adv-x="1024" />

    
    <glyph glyph-name="67" unicode="&#58947;" d="M210.686766-0.0007500000000391083l171.326996 209.406773 182.59093-144.383154c27.455839-21.695873 67.263606-17.343898 89.343476 9.727943L895.99475 371.58107299999995v-371.581823H210.686766z m-82.687516 767.9955h767.9955V535.93211c-18.559891 0-36.927784-7.103958-49.599709-22.591868l-251.838525-308.79819-182.52693 144.319154c-27.455839 21.695873-67.135607 17.343898-89.279477-9.663943L127.99925 101.05465800000002V767.9947500000001z m768.379498 127.99925H127.615252C57.279664 895.994 0 838.842335 0 768.378748V-0.384747999999945c0-70.335588 57.151665-127.615252 127.615252-127.615252h768.763496c70.335588 0 127.615252 57.151665 127.615252 127.615252V768.378748C1023.994 838.714336 966.842335 895.994 896.378748 895.994zM255.9985 575.9958750000001h63.999625c35.327793 0 63.999625 28.671832 63.999625 63.999625s-28.671832 63.999625-63.999625 63.999625h-63.999625c-35.327793 0-63.999625-28.671832-63.999625-63.999625s28.671832-63.999625 63.999625-63.999625z"  horiz-adv-x="1024" />

    
    <glyph glyph-name="69" unicode="&#58948;" d="M384.00284 383.98864000000003h255.99432a63.99858 63.99858 0 1 1 0 127.99716h-255.99432a63.99858 63.99858 0 1 1 0-127.99716z m458.741822-159.644458a63.99858 63.99858 0 0 1 106.493637 71.038424L567.678765 867.497912a63.99858 63.99858 0 0 1-106.39764 0.159997l-386.423426-575.98722a63.99858 63.99858 0 1 1 106.301642-71.294419L514.303949 716.909254l328.472712-492.533072zM128.00852-64.00142000000005h767.98296a63.99858 63.99858 0 1 1 0 127.99716H128.00852a63.99858 63.99858 0 1 1 0-127.99716z"  horiz-adv-x="1024" />

    
    <glyph glyph-name="70" unicode="&#58949;" d="M512-128C229.216-128 0 101.21600000000001 0 384S229.216 896 512 896s512-229.216 512-512-229.216-512-512-512z m1.152 844.288c-65.408 0-117.376-18.816-155.008-57.344C319.616 621.312 300.8 570.24 300.8 504.832h94.976c0 39.424 8.064 70.784 24.192 92.288 17.92 25.088 47.488 37.632 87.808 37.632 32.256 0 57.344-8.96 75.264-26.88 17.024-17.92 25.984-42.112 25.984-73.472 0-23.296-8.064-44.8-24.192-65.408l-15.232-17.024c-55.552-49.28-89.6-86.016-102.144-111.104-11.648-23.296-17.024-51.968-17.024-85.12v-15.232h95.872v15.232c0 22.4 4.48 42.112 14.336 60.032 8.064 16.128 20.608 31.36 36.736 45.696 43.008 36.736 68.096 60.032 76.16 69.888 21.504 28.672 33.152 65.408 33.152 109.312 0 53.76-17.92 96.768-52.864 128.128-35.84 32.256-82.432 47.488-140.672 47.488z m-15.232-524.16c-18.816 0-34.048-5.376-45.696-17.92-13.44-11.648-19.712-26.88-19.712-45.696 0-17.92 6.272-33.152 19.712-45.696 11.648-12.544 26.88-18.816 45.696-18.816 17.92 0 34.048 6.272 47.488 17.92 12.544 12.544 18.816 27.776 18.816 46.592s-6.272 34.048-18.816 45.696c-12.544 12.544-28.672 17.92-47.488 17.92z"  horiz-adv-x="1024" />

    
    <glyph glyph-name="60" unicode="&#58950;" d="M523.79264 415.072a64 64 0 0 1 106.496 71.04L375.92064 867.52A64 64 0 0 1 269.52064 867.68l-257.632-384a64 64 0 1 1 106.304-71.296l204.32 304.544 201.28-301.824zM65.04064-128h896a64 64 0 1 1 0 128H65.04064a64 64 0 1 1 0-128z m0 256h896a64 64 0 1 1 0 128H65.04064a64 64 0 1 1 0-128zM769.04064 704h192a64 64 0 1 1 0 128h-192a64 64 0 1 1 0-128zM225.04064 448h192a64 64 0 1 1 0 128H225.04064a64 64 0 1 1 0-128z m544 0h192a64 64 0 1 1 0 128h-192a64 64 0 1 1 0-128z"  horiz-adv-x="1025" />

    
    <glyph glyph-name="68" unicode="&#58951;" d="M128 0h768V768H128v-768zM0 768.384A127.68 127.68 0 0 0 127.616 896h768.768A127.68 127.68 0 0 0 1024 768.384v-768.768A127.68 127.68 0 0 0 896.384-128H127.616A127.68 127.68 0 0 0 0-0.38400000000001455V768.384z m365.12-274.976a63.968 63.968 0 1 1-90.208-90.784l193.216-192a64 64 0 0 1 90.368 0.128l190.784 190.72a64 64 0 1 1-90.496 90.496l-145.664-145.6-147.968 147.04z"  horiz-adv-x="1024" />

    
    <glyph glyph-name="72" unicode="&#58952;" d="M256 640H192a64 64 0 1 1 0-128h64a64 64 0 1 1 0 128z m384-448h-256a64 64 0 1 1 0-128h256a64 64 0 1 1 0 128zM128.832 768.256C128.8 767.968 640.064 768 640.064 768v-193.952c0-70.816 57.344-127.68 128.608-127.68h126.72c0.16 0 0.608-253.28 0.608-253.28l-0.384-128.256A128.288 128.288 0 0 1 1024 193.08799999999997v253.024c0 70.496-57.76 128.256-128.608 128.256h-126.72c-0.416 0-0.608 193.952-0.608 193.952A127.68 127.68 0 0 1 640.448 896h-512A128.096 128.096 0 0 1 0.832 768.256v-575.68c0-70.08 57.76-127.744 128.384-127.744v128L128.832 768.256zM256-64a192 192 0 1 1 0 384 192 192 0 0 1 0-384z m0 128a64 64 0 1 0-0.032 127.968A64 64 0 0 0 256 64z m512-128a192 192 0 1 1 0 384 192 192 0 0 1 0-384z m0 128a64 64 0 1 0-0.032 127.968A64 64 0 0 0 768 64z"  horiz-adv-x="1024" />

    
    <glyph glyph-name="71" unicode="&#58953;" d="M831.995125-64.00037499999996c0 35.391793-28.607832 63.999625-63.999625 63.999625H255.9985c-35.391793 0-63.999625-28.607832-63.999625-63.999625 0-35.327793 28.607832-63.999625 63.999625-63.999625h511.997c35.391793 0 63.999625 28.671832 63.999625 63.999625zM127.99925 191.99812499999996v575.996625h767.9955v-575.996625H127.99925z m895.99475 0v575.996625c0 70.655586-57.343664 127.99925-127.99925 127.99925H127.99925c-70.655586 0-127.99925-57.343664-127.99925-127.99925v-575.996625c0-70.655586 57.343664-127.99925 127.99925-127.99925h767.9955c70.655586 0 127.99925 57.343664 127.99925 127.99925zM575.996625 255.99775v127.99925h63.999625c35.391793 0 63.999625 28.671832 63.999625 63.999625 0 35.391793-28.607832 63.999625-63.999625 63.999625h-63.999625v24.447857l92.607457 46.271729c31.615815 15.871907 44.479739 54.271682 28.671832 85.887496-15.871907 31.615815-54.271682 44.479739-85.887496 28.671832L511.997 647.547456l-99.391418 49.727708c-31.615815 15.807907-70.01559 2.943983-85.887496-28.671832-15.807907-31.615815-2.943983-70.01559 28.671832-85.887496L447.997375 536.444107v-24.447857h-63.999625c-35.391793 0-63.999625-28.607832-63.999625-63.999625 0-35.327793 28.607832-63.999625 63.999625-63.999625h63.999625v-127.99925c0-35.327793 28.607832-63.999625 63.999625-63.999625s63.999625 28.671832 63.999625 63.999625z"  horiz-adv-x="1024" />

    
    <glyph glyph-name="73" unicode="&#58954;" d="M447.36 0H255.68A127.872 127.872 0 0 0 128 128.22400000000005V639.808a128.128 128.128 0 0 0 128.224 128.224h511.584c70.56 0 128.224-57.696 128.224-127.776v-64.48a64 64 0 1 1 128 0V640.256c0 140.768-114.976 255.776-256.224 255.776H256.224A256.128 256.128 0 0 1 0 639.808v-511.584C0-13.344000000000051 114.4-128 255.68-128h191.68a64 64 0 1 1 0 128zM256.288 576h383.264a64 64 0 1 1 0 128H256.288a64 64 0 1 1 0-128z m0-256h127.264a64 64 0 1 1 0 128H256.288a64 64 0 1 1 0-128z m0-256h127.264a64 64 0 1 1 0 128H256.288a64 64 0 1 1 0-128z m398.048-112.896a1376.192 1376.192 0 0 0-55.552 81.696 913.024 913.024 0 0 0-44.8 79.264C527.2 166.08000000000004 512 213.56799999999998 512 255.96799999999996a256 256 0 0 0 512 0c0-42.304-15.104-89.632-41.696-143.36-12.672-25.6-27.808-52.224-44.896-79.488a1384.96 1384.96 0 0 0-79.552-113.408c-45.856-62.144-131.456-63.328-178.368-1.92a1101.344 1101.344 0 0 0-25.184 33.28z m124.416 76.128a1238.272 1238.272 0 0 1 50.208 73.856c14.944 23.872 28.032 46.848 38.624 68.32 18.624 37.632 28.416 68.352 28.416 86.624a128 128 0 0 1-256 0c0-18.304 9.888-49.184 28.672-87.04 10.624-21.408 23.68-44.352 38.624-68.192A1272.192 1272.192 0 0 1 768 12.768000000000029c3.168 4.224 6.784 9.088 10.752 14.496zM832 256a64 64 0 1 0-127.968-0.032A64 64 0 0 0 832 256z"  horiz-adv-x="1024" />

    
    <glyph glyph-name="74" unicode="&#58955;" d="M449.49627 1.0348040000000083H255.57649A127.788245 127.788245 0 0 0 127.852171 129.11071600000002V640.10388a127.980023 127.980023 0 0 0 128.075912 128.075912h510.993164a127.852171 127.852171 0 0 0 128.075913-128.011986v-257.590161a63.926085 63.926085 0 1 1 127.85217 0V640.167806a255.704342 255.704342 0 0 1-255.928083 255.864157H255.928083A255.832194 255.832194 0 0 1 0 640.10388v-510.993164C0-12.293784999999957 114.363767-126.81736699999999 255.57649-126.81736699999999h193.91978a63.926085 63.926085 0 1 1 0 127.852171zM511.408684 456.699941v-144.217249L619.220027 384.591316 511.408684 456.699941z m205.074882-160.869994l-180.207635-120.532635C464.710678 127.41667399999994 383.556513 170.15126299999997 383.556513 256.131848v256.886974c0 86.460031 80.770609 128.970877 152.719418 80.866498l180.207635-120.532634c67.282205-45.003964 67.601835-132.295034 0-177.522739zM767.113026 192.81305999999995v-256.886975a63.926085 63.926085 0 1 1 127.85217 0V192.81305999999995a63.926085 63.926085 0 1 1-127.85217 0z m19.209788-45.611262l126.925243-127.500578a63.894122 63.894122 0 1 1 90.583263 90.199707l-126.925243 127.500578a63.894122 63.894122 0 1 1-90.583263-90.199707zM786.290851 237.88094999999998l-128.331616-127.788245a63.926085 63.926085 0 1 1 90.199706-90.583263l128.331617 127.788245A63.926085 63.926085 0 1 1 786.290851 237.88094999999998z"  horiz-adv-x="1024" />

    
    <glyph glyph-name="75" unicode="&#58956;" d="M378.081381-40.502342a2724.8679 2724.8679 0 0 0-116.958794 188.734053 1848.940933 1848.940933 0 0 0-61.855362 119.102772C153.667695 364.29348300000004 128.00396 446.02064 128.00396 511.97196c0 212.061813 171.934227 383.99604 383.99604 383.99604s383.99604-171.934227 383.99604-383.99604c0-65.887321-25.567736-147.454479-71.007268-244.189482a1844.556978 1844.556978 0 0 0-61.887361-119.26277 2704.804107 2704.804107 0 0 0-126.846692-203.037906c-63.647344-97.790992-182.942113-98.238987-247.35745-1.791981a2212.457184 2212.457184 0 0 0-10.847888 15.775837z m116.062803 57.087411c14.55985-21.983773 21.37578-21.951774 36.127628 0.607994a2444.358793 2444.358793 0 0 1 37.631611 56.22342 2570.149495 2570.149495 0 0 1 83.647138 137.854578 1720.110261 1720.110261 0 0 1 57.599406 110.910856c38.047608 81.023164 58.879393 147.39048 58.879393 189.758044a255.99736 255.99736 0 0 1-511.99472 0c0-42.399563 20.895785-108.958876 59.10339-190.174039a1734.030118 1734.030118 0 0 1 57.567406-110.814857 2591.205278 2591.205278 0 0 1 121.470748-194.429995zM512 320.00594a191.99802 191.99802 0 1 0 0 383.99604 191.99802 191.99802 0 0 0 0-383.99604z m0 127.99868a63.99934 63.99934 0 1 1 0.032 127.96668A63.99934 63.99934 0 0 1 512 448.00462z"  horiz-adv-x="1024" />

    
    <glyph glyph-name="76" unicode="&#58957;" d="M767.776 768H256.192a128.128 128.128 0 0 1-128.224-128.224v-511.584a128.128 128.128 0 0 1 128.224-128.224h511.584A128.128 128.128 0 0 1 896 128.192V639.7760000000001A128.128 128.128 0 0 1 767.776 768z m0 128A256.16 256.16 0 0 0 1024 639.7760000000001v-511.584a256.16 256.16 0 0 0-256.224-256.224H256.192a256.16 256.16 0 0 0-256.224 256.224V639.7760000000001A256.16 256.16 0 0 0 256.192 896h511.584z m53.216-476.288l-127.808 191.744a64 64 0 1 1-106.496-70.976l127.808-191.744a64 64 0 1 1 106.496 70.976z m-106.688-0.576l-127.488-191.52a64 64 0 0 1 106.528-70.944l127.488 191.52a64 64 0 0 1-106.528 70.944z m-405.12-70.4l127.808 191.744a64 64 0 1 1-106.496 70.976l-127.808-191.744a64 64 0 1 1 106.496-70.976z m-106.368-0.512l127.488-191.52a64 64 0 1 1 106.528 70.944l-127.488 191.52a64 64 0 1 1-106.528-70.944z"  horiz-adv-x="1024" />

    
    <glyph glyph-name="77" unicode="&#58958;" d="M767.776 768H256.192a128.128 128.128 0 0 1-128.224-128.224v-511.584a128.128 128.128 0 0 1 128.224-128.224h511.584A128.128 128.128 0 0 1 896 128.192V639.7760000000001A128.128 128.128 0 0 1 767.776 768z m0 128A256.16 256.16 0 0 0 1024 639.7760000000001v-511.584a256.16 256.16 0 0 0-256.224-256.224H256.192a256.16 256.16 0 0 0-256.224 256.224V639.7760000000001A256.16 256.16 0 0 0 256.192 896h511.584z m-74.592-547.264l127.808 191.744a64 64 0 1 1-106.496 70.976l-127.808-191.744a64 64 0 1 1 106.496-70.976z m-106.368-0.512l127.488-191.52a64 64 0 1 1 106.528 70.944l-127.488 191.52a64 64 0 1 1-106.528-70.944z m-149.824 71.488L309.184 611.456a64 64 0 1 1-106.496-70.976l127.808-191.744a64 64 0 1 1 106.496 70.976z m-106.688-0.576l-127.488-191.52a64 64 0 0 1 106.528-70.944l127.488 191.52a64 64 0 0 1-106.528 70.944z"  horiz-adv-x="1024" />

    
    <glyph glyph-name="79" unicode="&#58959;" d="M418.304 662.112v-108.192L512 499.808l93.696 54.112V662.112L512 716.2239999999999l-93.696-54.112zM484.8 848.32c15.008 8.672 39.104 8.8 54.368 0l167.328-96.608c15.008-8.672 27.168-29.472 27.168-47.072v-193.216c0-17.344-11.904-38.272-27.168-47.072l-167.328-96.608c-15.008-8.672-39.104-8.8-54.368 0l-167.328 96.608c-15.008 8.672-27.2 29.472-27.2 47.072V704.64c0 17.344 11.936 38.272 27.2 47.072L484.8 848.32zM162.304 214.11199999999997v-108.192L256 51.80799999999999l93.696 54.112v108.192L256 268.22400000000005l-93.696-54.112zM228.8 400.32c15.008 8.672 39.104 8.8 54.368 0l167.328-96.608c15.008-8.672 27.2-29.472 27.2-47.072v-193.216c0-17.344-11.936-38.272-27.2-47.072l-167.328-96.608c-15.008-8.672-39.104-8.8-54.368 0l-167.328 96.608c-15.008 8.672-27.2 29.472-27.2 47.072V256.64c0 17.344 11.936 38.272 27.2 47.072L228.8 400.32zM768 268.192l-93.696-54.112v-108.192L768 51.775999999999954l93.696 54.112V214.08000000000004L768 268.192z m-27.168 132.128c15.008 8.672 39.104 8.8 54.368 0l167.328-96.608c15.008-8.672 27.168-29.472 27.168-47.072v-193.216c0-17.344-11.904-38.272-27.168-47.072l-167.328-96.608c-15.008-8.672-39.104-8.8-54.368 0l-167.328 96.608c-15.008 8.672-27.168 29.472-27.168 47.072V256.64c0 17.344 11.904 38.272 27.168 47.072l167.328 96.608z"  horiz-adv-x="1024" />

    
    <glyph glyph-name="80" unicode="&#58960;" d="M276.704 630.976a305.92 305.92 0 0 0 193.024 110.976 64 64 0 0 1-19.232 126.56A433.856 433.856 0 0 1 176.8 711.04a64 64 0 1 1 99.872-80.032z m192.352-554.688a304.864 304.864 0 0 0-107.68 38.176 304.896 304.896 0 0 0-86.4 74.912 64.032 64.032 0 0 1-100.544-79.232 433.728 433.728 0 0 1 122.464-106.272 432.64 432.64 0 0 1 152.768-54.112 64 64 0 1 1 19.392 126.528z m396.896 425.6a306.144 306.144 0 0 0-1.024-224.448 63.968 63.968 0 1 1 118.816-47.584 434.112 434.112 0 0 1 1.568 318.304 64 64 0 1 1-119.328-46.24z m-88.448 186.912a47.104 47.104 0 1 1-64.384-17.024 47.136 47.136 0 0 1 64.416 16.992z m110.592-64.384a175.104 175.104 0 1 0-302.656 176.256 175.104 175.104 0 0 0 302.656-176.256z m-127.904-609.824a47.104 47.104 0 1 1-46.816 81.728 47.104 47.104 0 0 1 46.816-81.728z m-110.4 192.864a175.104 175.104 0 1 0 173.952-303.968 175.136 175.136 0 1 0-173.952 303.968z m-427.2 165.536a47.104 47.104 0 1 1-46.816 81.728 47.104 47.104 0 0 1 46.816-81.728z m-110.4 192.864a175.104 175.104 0 1 0 173.952-303.968 175.136 175.136 0 1 0-173.984 304z"  horiz-adv-x="1024" />

    
    <glyph glyph-name="81" unicode="&#58961;" d="M512-128C229.216-128 0 101.21600000000001 0 384S229.216 896 512 896s512-229.216 512-512-229.216-512-512-512z m0 128c212.064 0 384 171.936 384 384S724.064 768 512 768 128 596.0640000000001 128 384s171.936-384 384-384z m-128 576h256a64 64 0 0 0 64-64v-256a64 64 0 0 0-64-64h-256a64 64 0 0 0-64 64v256a64 64 0 0 0 64 64z"  horiz-adv-x="1024" />

    
    <glyph glyph-name="82" unicode="&#58962;" d="M512-128C229.216-128 0 101.21600000000001 0 384S229.216 896 512 896s512-229.216 512-512-229.216-512-512-512z m0 128c212.064 0 384 171.936 384 384S724.064 768 512 768 128 596.0640000000001 128 384s171.936-384 384-384z m-192 544v-320a64 64 0 1 1 128 0V544a64 64 0 1 1-128 0z m288-96h-192a64 64 0 1 1 0-128h192a64 64 0 1 1 0 128z m-32 96v-320a64 64 0 1 1 128 0V544a64 64 0 1 1-128 0z"  horiz-adv-x="1024" />

    
    <glyph glyph-name="83" unicode="&#58963;" d="M785.022867 536.694366l52.11848-55.601568c49.274492-52.565849 48.795168-139.131737-0.734963-190.802848l-49.881635-52.054571a63.909847 63.909847 0 0 1 92.285819-88.451228l49.881636 52.05457c96.535824 100.753874 97.398607 264.554812 1.693611 366.650793l-52.118481 55.601568a63.909847 63.909847 0 1 1-93.244467-87.428671z m-115.772688-420.750479l-9.874071-10.417305-63.558343-66.338422c-48.347799-50.456824-126.701272-51.159833-175.432531-1.82143l-252.92322 256.086757a127.819694 127.819694 0 0 0 1.022557 180.193814l261.199546 258.675107c49.434267 48.954943 127.500145 47.421107 175.304711-3.578952l66.242556-70.684291a63.909847 63.909847 0 1 1 93.244467 87.428671l-66.242556 70.684291a249.088629 249.088629 0 0 1-358.502288 6.998128l-261.199545-258.675106c-99.859136-98.900488-100.913649-260.752176-2.045116-360.834997l252.923221-256.086758a249.312314 249.312314 0 0 1 358.630107 3.195493l63.813982 66.59406 10.097756 10.672945a63.909847 63.909847 0 0 1-92.733188 87.93995zM512 191.54923599999995a191.729542 191.729542 0 1 0 0 383.459083 191.729542 191.729542 0 0 0 0-383.459083z m0 127.819694a63.909847 63.909847 0 1 1 0.031955 127.78774A63.909847 63.909847 0 0 1 512 319.36893z"  horiz-adv-x="1024" />

    
    <glyph glyph-name="78" unicode="&#58964;" d="M365.632 738.944c-15.424-46.592-26.944-101.696-34.496-162.944h-151.36a385.28 385.28 0 0 0 185.856 162.944zM844.224 576h-151.296c-7.616 61.248-19.136 116.352-34.56 162.944A385.024 385.024 0 0 0 844.224 576z m-185.856-546.944c15.424 46.592 26.944 101.632 34.56 162.944h151.296a384.672 384.672 0 0 0-185.856-162.944zM179.776 192h151.36c7.552-61.312 19.072-116.352 34.496-162.944A384.96 384.96 0 0 0 179.776 192z m141.504 128H133.76c-3.52 20.864-5.76 42.112-5.76 64 0 21.824 2.24 43.136 5.76 64h187.52c-0.768-20.992-1.28-42.24-1.28-64s0.512-43.008 1.28-64zM512 12.032000000000039c-9.92 16.448-19.968 41.28-28.992 72.768-8.832 31.04-15.808 67.904-21.44 107.2h100.928c-5.696-39.296-12.608-76.16-21.504-107.2-9.024-31.488-19.072-56.32-28.992-72.768zM896 384c0-21.888-2.24-43.136-5.76-64h-187.456c0.704 20.992 1.216 42.24 1.216 64s-0.512 43.008-1.216 64h187.456c3.52-20.864 5.76-42.176 5.76-64z m-321.792 64c0.896-21.12 1.792-42.24 1.792-64 0-21.824-0.896-42.944-1.792-64h-124.416A1489.92 1489.92 0 0 0 448 384c0 21.76 0.896 42.88 1.792 64h124.416zM512 755.904c9.92-16.384 19.968-41.28 28.992-72.704 8.896-31.104 15.808-67.968 21.504-107.2h-100.928c5.632 39.232 12.608 76.096 21.44 107.2 9.024 31.424 19.072 56.32 28.992 72.704zM0 384c0-282.752 229.248-512 512-512s512 229.248 512 512S794.752 896 512 896 0 666.752 0 384z"  horiz-adv-x="1024" />

    
    <glyph glyph-name="87" unicode="&#58965;" d="M703.712 320c-35.264 0-64 28.736-64 64s28.736 64 64 64c35.136 0 63.68-28.544 63.936-63.616l-0.064-0.384 0.064-0.384A64.096 64.096 0 0 0 703.712 320z m256 128h-75.776c-26.496 74.304-96.896 128-180.224 128s-153.728-53.696-180.224-128H63.968a64 64 0 0 1 0-128h459.52c26.496-74.304 96.896-128 180.224-128s153.728 53.696 180.224 128h75.776a64 64 0 0 1 0 128z m-640-448c-35.264 0-64 28.736-64 64s28.736 64 64 64c35.264 0 64-28.736 64-64s-28.736-64-64-64z m640 128H499.936c-26.496 74.304-96.896 128-180.224 128s-153.728-53.696-180.224-128h-75.52a64 64 0 0 1 0-128h75.52c26.496-74.304 96.896-128 180.224-128s153.728 53.696 180.224 128h459.776a64 64 0 0 1 0 128z m-640 512c-35.264 0-64 28.736-64 64s28.736 64 64 64c35.008 0 63.36-28.288 63.808-63.168 0-0.256-0.128-0.512-0.128-0.832s0.128-0.576 0.128-0.832A63.936 63.936 0 0 0 319.712 640z m640 128H499.936c-26.496 74.304-96.896 128-180.224 128S165.984 842.304 139.488 768h-75.52a64 64 0 0 1 0-128h75.52c26.496-74.304 96.896-128 180.224-128s153.728 53.696 180.224 128h459.776a64 64 0 0 1 0 128z"  horiz-adv-x="1024" />

    
    <glyph glyph-name="86" unicode="&#58966;" d="M320 576c0 105.856 86.144 192 192 192s192-86.144 192-192-86.144-192-192-192-192 86.144-192 192z m448.448-576H576v64h192.448a64 64 0 1 1 0 128H576v70.464c145.856 29.76 256 159.04 256 313.536 0 176.448-143.552 320-320 320S192 752.448 192 576c0-154.496 110.144-283.776 256-313.536V-64a64 64 0 0 1 64-64h256.448a64 64 0 1 1 0 128z"  horiz-adv-x="1024" />

    
    <glyph glyph-name="84" unicode="&#58967;" d="M512-128C229.216-128 0 101.21600000000001 0 384S229.216 896 512 896s512-229.216 512-512-229.216-512-512-512z m0 128c212.064 0 384 171.936 384 384S724.064 768 512 768 128 596.0640000000001 128 384s171.936-384 384-384z m-24.672 267.264c46.432-62.72 132.032-62.912 178.464-0.224l153.184 206.88a64 64 0 0 1-102.848 76.16l-139.456-188.352-102.368 138.304c-47.2 63.776-133.728 61.856-177.792-4.256L202.784 355.20000000000005a64 64 0 0 1 106.528-71.008l78.432 117.664 99.648-134.592z"  horiz-adv-x="1024" />

    
    <glyph glyph-name="89" unicode="&#58968;" d="M512 384C304.512 384 128 489.92 128 640s176.512 256 384 256 384-105.92 384-256-176.512-256-384-256z m0 128c145.984 0 256 66.016 256 128s-110.016 128-256 128c-145.984 0-256-66.016-256-128s110.016-128 256-128zM128 384c0-150.08 176.512-256 384-256s384 105.92 384 256a64 64 0 1 1-128 0c0-61.984-110.016-128-256-128s-256 66.016-256 128a64 64 0 1 1-128 0z m0-256c0-150.08 176.512-256 384-256s384 105.92 384 256a64 64 0 1 1-128 0c0-61.984-110.016-128-256-128s-256 66.016-256 128a64 64 0 1 1-128 0z"  horiz-adv-x="1024" />

    
    <glyph glyph-name="88" unicode="&#58969;" d="M128 448.128C128 483.392 156.736 512 192.384 512h639.232c35.52 0 64.384-28.8 64.384-63.872V256h-64v63.104a128 128 0 0 1-127.808 128.064H319.808A128.224 128.224 0 0 1 192 319.03999999999996V256H128v192.128zM704 768v-128H320V767.744L704 768zM320 0.2559999999999718s0.192 318.912-0.192 318.912c0 0 384.192 0 384.192-0.064 0 0-0.32-319.104 0.192-319.104 0 0-384.192 0.128-384.192 0.256zM127.872 128H192v-127.744A127.872 127.872 0 0 1 319.808-128h384.384c70.4 0 127.808 57.792 127.808 128.576V128h64.192A127.424 127.424 0 0 1 1024 255.42399999999998v192.704c0 105.728-86.08 191.616-192 191.808V768.064A127.904 127.904 0 0 1 704.192 896H319.808C249.472 896 192 838.4 192 767.744v-127.808c-106.048-0.192-192-85.888-192-191.808v-192.704C0 185.34400000000005 57.472 128 127.872 128z"  horiz-adv-x="1024" />

    
    <glyph glyph-name="85" unicode="&#58970;" d="M575.385899-127.90176899999994h-126.803795a128.243657 128.243657 0 0 0-90.871254 37.532387 127.987681 127.987681 0 0 0-37.724369 90.903251V40.08206199999995c-3.519661 1.759831-7.007326 3.551658-10.462993 5.40748l-33.692757-19.454128a128.051675 128.051675 0 0 0-175.503108 47.131464l-63.385899 109.81343a128.915592 128.915592 0 0 0-16.286432 48.31535 128.21166 128.21166 0 0 0 63.225914 127.219755l23.133774 13.374713a385.210923 385.210923 0 0 0 0 24.317659l-23.133774 13.374713a128.62762 128.62762 0 0 0-59.898234 77.752516 128.659617 128.659617 0 0 0 12.990749 97.846582l63.385899 109.781434a128.243657 128.243657 0 0 0 127.059771 63.385899 127.603718 127.603718 0 0 0 48.443337-16.254436l33.692757-19.454127c3.487664 1.855821 6.943332 3.647649 10.462993 5.407479V767.596039a128.531629 128.531629 0 0 0 37.372403 90.743266 128.563626 128.563626 0 0 0 91.191223 37.692372h126.771798a128.243657 128.243657 0 0 0 90.871254-37.532388 127.987681 127.987681 0 0 0 37.724369-90.90325v-51.003091l44.15575 25.501545a128.051675 128.051675 0 0 0 175.503108-47.131463l63.385899-109.813431c8.639168-14.974559 14.110642-31.260991 16.286432-48.315349a128.21166 128.21166 0 0 0-63.225914-127.219755l-44.15575-25.501546 44.15575-25.501545a128.62762 128.62762 0 0 0 59.898235-77.752517 128.659617 128.659617 0 0 0-12.99075-97.846582l-63.385899-109.781433a128.243657 128.243657 0 0 0-127.059771-63.3859 127.603718 127.603718 0 0 0-48.443337 16.254436l-44.15575 25.501545v-51.003091a128.531629 128.531629 0 0 0-37.372403-90.743266 127.347743 127.347743 0 0 0-41.020052-27.613342 127.89169 127.89169 0 0 0-50.171171-10.111027zM448.006159 0.37388399999997546c0.159985-0.287972 0.479954-0.287972 0.607942-0.287972h126.771798c0.41596 0 0.575945 0.063994 0.575945 0.063994l0.031997 0.383963v100.374339a63.993841 63.993841 0 0 0 34.108717 56.602552 255.719387 255.719387 0 0 1 39.932156 26.109487 63.961844 63.961844 0 0 0 71.833086 5.343485l90.263312-52.122983 0.127988-0.063994c0.319969-0.031997 0.511951 0.287972 0.543948 0.383963l63.385899 109.813431c0.191982 0.351966 0.223978 0.511951 0.223978 0.51195l-0.287972 0.223979-98.294539 56.73054a64.025838 64.025838 0 0 0-31.836936 60.186207 261.990783 261.990783 0 0 1 0 38.844261 64.025838 64.025838 0 0 0 31.836936 60.186207l98.294539 56.73054 0.127988 0.063994a0.639938 0.639938 0 0 1-0.031997 0.671935l-63.385899 109.81343a1.503855 1.503855 0 0 1-0.31997 0.447957l-0.351966-0.159984-90.263312-52.122984a63.993841 63.993841 0 0 0-71.865083 5.343486 256.51931 256.51931 0 0 1-39.932156 26.109487A64.025838 64.025838 0 0 0 575.993841 667.157706V767.564042v0.159985C575.833856 768.0119990000001 575.513887 768.0119990000001 575.385899 768.0119990000001h-126.803795c-0.41596 0-0.575945-0.063994-0.575945-0.063994l-0.031997-0.383963v-81.816125c0-27.133388-17.086355-51.291063-42.651894-60.314195-20.797998-7.359292-40.636089-17.438322-58.906331-29.981114a64.025838 64.025838 0 0 0-68.15344-2.591751L211.804894 631.2251650000001l-0.127988 0.063993c-0.319969 0.031997-0.511951-0.287972-0.543948-0.383963l-63.353902-109.877424c-0.191982-0.351966-0.223978-0.511951-0.223978-0.511951l0.287972-0.223978 58.426377-33.724754a63.929847 63.929847 0 0 0 31.292988-64.761767 261.638817 261.638817 0 0 1 0-75.704713 63.993841 63.993841 0 0 0-31.292988-64.761767l-58.426377-33.724754-0.127988-0.063994a0.639938 0.639938 0 0 1 0.031997-0.671935l63.385899-109.81343c0.191982-0.351966 0.319969-0.447957 0.31997-0.447957l0.351966 0.159984 66.457603 38.364308a64.121828 64.121828 0 0 0 68.15344-2.591751 256.807282 256.807282 0 0 1 58.906331-29.981114 64.025838 64.025838 0 0 0 42.651894-60.314195v-81.784128a0.319969 0.319969 0 0 0 0.031997-0.159985zM512 192.06743400000005a190.54166 190.54166 0 0 0-74.744806 15.134543c-22.877798 9.66307-43.387824 23.485739-60.98613 41.116042a191.693549 191.693549 0 0 0-41.116042 210.475742c9.66307 22.877798 23.485739 43.387824 41.116042 60.98613a191.693549 191.693549 0 0 0 210.475742 41.116043c22.877798-9.66307 43.387824-23.485739 60.98613-41.116043a191.693549 191.693549 0 0 0 41.116042-210.475742c-9.66307-22.877798-23.485739-43.387824-41.116042-60.98613A191.693549 191.693549 0 0 0 512 192.06743400000005z m0 255.975362c-17.086355 0-33.180806-6.655359-45.243645-18.750195S448.006159 401.135311 448.006159 384.048955c0-17.086355 6.655359-33.180806 18.750196-45.243645S494.913645 320.055115 512 320.055115c17.086355 0 33.180806 6.655359 45.243645 18.750195S575.993841 366.96259999999995 575.993841 384.048955c0 17.086355-6.655359 33.180806-18.750196 45.243646S529.086355 448.042796 512 448.042796z"  horiz-adv-x="1024" />

    
    <glyph glyph-name="90" unicode="&#58971;" d="M641.916914 748.771497c-20.607511-1.407967-54.270711-16.767602-68.286378-30.879267L148.104643 289.582402a65.27845 65.27845 0 0 1 0.319992-91.645823l177.307789-178.907751a63.614489 63.614489 0 0 1 90.365854-0.383991l428.59782 427.701842c14.175663 14.143664 29.791292 48.446849 31.231259 68.63837l18.07957 251.098037-252.122012-17.27959zM633.181122 876.480464L894.390918 894.368039c74.462232 5.119878 133.404832-53.246735 127.99696-128.220955l-18.751554-260.377816c-3.647913-50.878792-32.479229-114.10929-68.478374-150.044436L506.560129-71.97701099999995a191.611449 191.611449 0 0 0-271.705547 0.895979l-177.307789 178.907751c-74.590228 75.262213-74.782224 196.891324-0.223994 271.961541L482.848692 808.098088C518.815838 844.289228 581.630346 872.928548 633.213121 876.480464zM767.99392 544.00836a95.99772 95.99772 0 1 0-191.99544 0 95.99772 95.99772 0 0 0 191.99544 0z"  horiz-adv-x="1024" />

    
    <glyph glyph-name="92" unicode="&#58972;" d="M255.776-128h128.384a64 64 0 0 1 0 128H255.776a127.872 127.872 0 0 0-127.744 128.192V639.808A128.096 128.096 0 0 0 256.224 768h511.552a128.096 128.096 0 0 0 128.256-127.936v-128.448a64 64 0 1 1 128 0V640.064c0 141.44-114.752 255.936-256.256 255.936H256.224A256.096 256.096 0 0 1 0.032 639.808v-511.616C0.032-13.375999999999976 114.464-128 255.776-128zM576 448c70.72 0 128-57.28 128-128s-57.28-128-128-128-128 57.28-128 128 57.28 128 128 128z m0-384c48 0 92.416 14.016 130.752 36.992l143.616-145.856a64 64 0 1 1 91.264 89.728l-145.024 147.328C818.496 229.952 832 273.216 832 320a256 256 0 1 1-256-256z"  horiz-adv-x="1024" />

    
    <glyph glyph-name="91" unicode="&#58973;" d="M127.984002 573.0003750000001c0 10.622672 11.262592 28.412448 20.989376 33.019872l333.782278 156.588427c14.782152 6.911136 46.714161 6.911136 61.944257-0.191976L874.450694 608.64392c9.5988-4.415448 21.43732-23.03712 21.43732-33.339833v-386.31971c0-10.174728-11.774528-28.47644-20.989376-32.699913l-329.814773-151.021122c-15.422072-7.03912-48.249969-7.03912-63.928009 0.063992l-331.92651 151.021122c-9.534808 4.351456-21.245344 22.525184-21.245344 32.315961V573.0003750000001z m-127.984002 0v-384.335958c0-60.088489 41.146857-123.696538 96.24397-148.781402l331.862517-151.021123c49.465817-22.525184 121.072866-22.461192 170.282714 0.063992l329.750782 151.021123C982.789151 64.96787900000004 1023.872016 128.63991999999996 1023.872016 188.984377V575.304087c0 60.024497-40.698913 123.888514-95.348081 149.35733L598.773153 878.434196c-49.529809 23.101112-121.20085 23.101112-170.410698 0L94.644169 721.845769C39.931009 696.184977 0 633.216848 0 573.0003750000001z m227.075616-118.065242l220.836395-111.666042v-215.205099a63.992001 63.992001 0 0 1 127.984002 0v215.589051l221.028371 110.770154a63.992001 63.992001 0 0 1-57.400824 114.417698l-228.0035-114.353706-226.659668 114.673666a63.992001 63.992001 0 0 1-57.784776-114.225722z"  horiz-adv-x="1024" />

    
    <glyph glyph-name="93" unicode="&#58974;" d="M511.99968 639.7115200000001a63.99996 63.99996 0 0 1-63.99996-63.99996v-229.247857l-82.751948 82.815949a63.99996 63.99996 0 1 1-90.495944-90.495944l191.67988-191.80788c6.015996-6.207996 13.311992-11.071993 21.439987-14.399991l0.768-0.128c7.295995-2.879998 15.103991-4.735997 23.359985-4.735997 0.256 0 0.448 0.128 0.704 0.128a63.71196 63.71196 0 0 1 45.567971 18.815988l191.103881 192.25588c24.959984 25.023984 24.831984 65.599959-0.256 90.495944s-65.599959 24.767985-90.495944-0.256L575.99964 346.015704v229.695856a63.99996 63.99996 0 0 1-63.99996 63.99996zM0 383.99968c0-282.751823 229.247857-511.99968 511.99968-511.99968s511.99968 229.247857 511.99968 511.99968c0 76.799952-16.959989 151.359905-49.215969 219.327863a63.99996 63.99996 0 1 1-115.647928-54.911966A381.663761 381.663761 0 0 0 895.99944 383.99968c0-212.095867-171.903893-383.99976-383.99976-383.99976S127.99992 171.903813 127.99992 383.99968 299.903813 767.99944 511.99968 767.99944c57.919964 0 113.919929-12.799992 164.991897-37.119977a63.99996 63.99996 0 0 1 55.103965 115.519928A509.983681 509.983681 0 0 1 511.99968 895.99936C229.247857 895.99936 0 666.751503 0 383.99968z"  horiz-adv-x="1024" />

    
    <glyph glyph-name="94" unicode="&#58975;" d="M768-128h63.872A128.352 128.352 0 0 1 960 0v64a64 64 0 0 1-128 0v-64c0 0.256-639.808 0-639.808 0C191.936 0 192 64 192 64a64 64 0 0 1-128 0v-64c0-70.912 57.344-128 128.192-128H768zM128 511.968h768v-128.128c0-31.936-39.872-63.872-96-63.872-55.68 0-96 32.32-96 63.872a64 64 0 1 1-128 0 63.616 63.616 0 0 0-64-63.872c-35.264 0-64 28.8-64 63.872a64 64 0 1 1-128 0c0-31.936-39.872-63.872-96-63.872-55.68 0-96 32.32-96 63.872v128.128z m576.576 254.144c47.68 0 113.28-37.184 138.048-78.272l28.8-47.872H154.24l30.016 48.896c25.024 40.704 90.496 77.248 138.816 77.248h381.504z m-324.992-520.64A191.168 191.168 0 0 1 512 191.96799999999996c51.712 0 98.24 20.544 132.736 53.568 40.704-33.408 95.744-53.568 155.264-53.568 121.408 0 224 82.24 224 191.872V576.096c0 4.416-2.24 62.336-17.728 88l-54.016 89.792C904.448 833.376 797.184 894.112 704.576 894.112H323.072c-92.736 0-199.552-59.648-247.872-138.24L18.816 663.968C3.456 639.008 0 581.152 0 576.096v-192.256c0-109.312 103.168-191.872 224-191.872 59.84 0 114.944 20.16 155.584 53.504z"  horiz-adv-x="1024" />

    
    <glyph glyph-name="96" unicode="&#58976;" d="M894.144878 498.843925c4.607676 5.887586 5.247631 22.462421 1.055926 28.701982l-144.021874 215.728831C743.595463 754.6339399999999 718.733212 768.008999 705.10217 768.008999H320.745195c-13.599044 0-38.429298-13.279066-46.044762-24.702263l-143.925881-215.728831c-4.12771-6.207564-3.55175-22.814396 1.055926-28.73398L512.923683 10.366270999999983l381.221195 488.477654zM320.745195 896h384.356975c56.508027 0 121.271473-34.781554 152.533275-81.658258l144.021873-215.728832c34.877548-52.252326 31.901757-129.174917-6.623534-178.515448L602.709369-82.619191c-47.324672-60.635737-132.470686-60.379755-179.603371 0L30.909574 420.097462C-7.71171 469.597981-10.431519 546.552571 24.28604 598.580912l143.92588 215.728832C199.601713 861.378434 264.397157 895.968002 320.745195 895.968002z m120.535525-655.153934c30.589849-65.339406 112.792069-65.147419 143.317923 0L681.647819 448.031498h23.294362a63.9955 63.9955 0 1 1 0 127.991h-31.99775c-42.141037 0-85.625979-27.614058-103.640713-66.107351l-56.348038-120.311541-56.348038 120.311541C438.560911 548.4084399999999 395.523937 576.022498 352.966929 576.022498h-31.99775a63.9955 63.9955 0 1 1 0-127.991h23.294362l97.049177-207.185432z"  horiz-adv-x="1026" />

    
    <glyph glyph-name="97" unicode="&#58977;" d="M640 704.1279999999999v-128.256c0-35.136 28.704-63.872 63.872-63.872h128.256A64.032 64.032 0 0 1 896 575.8720000000001V704.1279999999999A64.032 64.032 0 0 1 832.128 768h-128.256A64.032 64.032 0 0 1 640 704.1279999999999z m-128 0A192.032 192.032 0 0 0 703.872 896h128.256A192.032 192.032 0 0 0 1024 704.1279999999999v-128.256A192.032 192.032 0 0 0 832.128 384h-128.256A192.032 192.032 0 0 0 512 575.8720000000001V704.1279999999999zM192 511.872V640.1279999999999C192 675.296 220.736 704 255.872 704h128.256a64 64 0 1 1 0 128H255.872A192 192 0 0 1 64 640.1279999999999v-128.256a64 64 0 1 1 128 0z m-64-319.744v-128.256C128 28.73599999999999 156.704 0 191.872 0h128.256A64.032 64.032 0 0 1 384 63.87199999999996v128.256A64.032 64.032 0 0 1 320.128 256H191.872A64.032 64.032 0 0 1 128 192.12800000000004z m-128 0A192.032 192.032 0 0 0 191.872 384h128.256A192.032 192.032 0 0 0 512 192.12800000000004v-128.256A192.032 192.032 0 0 0 320.128-128H191.872A192.032 192.032 0 0 0 0 63.87199999999996v128.256z m832 64v-128.256A64.032 64.032 0 0 0 768.128 64h-128.256a64 64 0 1 1 0-128h128.256A192 192 0 0 1 960 127.87199999999996v128.256a64 64 0 1 1-128 0z"  horiz-adv-x="1024" />

    
    <glyph glyph-name="95" unicode="&#58978;" d="M128 640.288v-558.336c0-63.072 41.92-94.464 103.04-76.8l201.856 58.368c45.12 13.056 112.928 13.12 158.272 0l201.856-58.368c61.536-17.792 103.04 13.344 103.04 76.8V640.288C896.064 710.656 838.592 768 767.84 768H256.256a127.872 127.872 0 0 1-128.224-127.712z m-128 0C0 781.6 114.656 896 256.224 896h511.584c141.408 0 256.224-114.624 256.224-255.712v-558.336c0-148.704-123.232-241.216-266.592-199.744l-201.856 58.368c-22.048 6.368-65.216 6.336-87.136 0l-201.856-58.368C123.744-159.10400000000004 0-66.43200000000002 0 81.952V640.288z m621.056-220.864c-42.752 12.256-84.288 42.496-109.056 79.232-24.864-36.864-66.464-67.008-109.056-79.232 27.392-35.04 43.2-83.936 41.664-128.224 41.792 15.2 93.152 15.136 134.816 0-1.536 44.448 14.4 93.28 41.664 128.224z m-81.952-249.984c-13.024 6.848-41.088 6.912-54.208 0l-36.704-19.296c-78.336-41.184-153.984 12.896-138.88 100.896l7.008 40.864c2.496 14.496-6.112 41.184-16.768 51.552l-29.696 28.928c-63.36 61.76-35.328 150.432 53.056 163.264l41.024 5.952c14.56 2.112 37.28 18.56 43.872 31.872l18.336 37.184c39.168 79.36 132.16 80.064 171.68 0l18.336-37.184c6.528-13.216 29.184-29.728 43.872-31.872l41.024-5.952c87.584-12.736 116.992-100.928 53.056-163.264l-29.696-28.928c-10.528-10.272-19.264-36.928-16.736-51.552l7.008-40.864c14.976-87.232-59.84-142.464-138.88-100.896l-36.704 19.296z"  horiz-adv-x="1024" />

    
    <glyph glyph-name="100" unicode="&#58979;" d="M470.391222 880.603587l-447.99804-383.99832a63.99972 63.99972 0 1 1 83.295636-97.183574l447.99804 383.99832A63.99972 63.99972 0 1 1 470.391222 880.603587z m0-97.183574l447.99804-383.99832a63.99972 63.99972 0 1 1 83.295636 97.183574l-447.99804 383.99832a63.99972 63.99972 0 1 1-83.295636-97.183574zM448.05532 799.99594v-861.852229a63.99972 63.99972 0 1 1 127.99944 0V799.99594a63.99972 63.99972 0 1 1-127.99944 0z"  horiz-adv-x="1024" />

    
    <glyph glyph-name="99" unicode="&#58980;" d="M127.744-10.495999999999981l31.232 189.92a64 64 0 1 1-126.304 20.768l-31.232-189.92a64 64 0 1 1 126.304-20.768z m863.36 575.008l32.608 191.232a64 64 0 0 1-126.176 21.536l-32.608-191.232a64 64 0 0 1 126.176-21.536z m-679.072-6.496l160-128a64 64 0 0 1 79.968 99.936l-160 128a64 64 0 0 1-79.968-99.936z m320 99.968l-160-128a64 64 0 1 1 79.968-99.936l160 128a64 64 0 1 1-79.968 99.936zM576 127.39200000000005V446.08a64 64 0 1 1-128 0v-318.688a64 64 0 1 1 128 0z m128.96 383.904h-384a64 64 0 1 1 0-128h384a64 64 0 1 1 0 128z m0-192h-384a64 64 0 1 1 0-128h384a64 64 0 1 1 0 128zM50.368 162.30399999999997A511.968 511.968 0 0 1 512-128c282.784 0 512 229.216 512 512a64 64 0 1 1-128 0c0-212.064-171.936-384-384-384a384 384 0 0 0-346.272 217.792 64 64 0 0 1-115.328-55.488zM975.584 601.6A512 512 0 0 1 512 896C229.216 896 0 666.784 0 384a64 64 0 1 1 128 0C128 596.0640000000001 299.936 768 512 768c150.336 0 284.896-87.168 347.744-220.864a64 64 0 1 1 115.84 54.464z"  horiz-adv-x="1024" />

    
    <glyph glyph-name="101" unicode="&#58981;" d="M470.517302-112.57158700000002l-447.99804 383.99832a63.99972 63.99972 0 1 0 83.295636 97.183574l447.99804-383.99832a63.99972 63.99972 0 1 0-83.295636-97.183574z m0 97.151574l447.99804 383.99832a63.99972 63.99972 0 1 0 83.295636-97.183574l-447.99804-383.99832a63.99972 63.99972 0 1 0-83.295636 97.183574zM448.1814-31.99594000000002V829.8562890000001a63.99972 63.99972 0 1 0 127.99944 0V-31.99594000000002a63.99972 63.99972 0 1 0-127.99944 0z"  horiz-adv-x="1024" />

    
    <glyph glyph-name="98" unicode="&#58982;" d="M721.470873 290.01694699999996a63.9359 63.9359 0 0 1-11.327983 89.79186 63.9999 63.9999 0 0 1-89.791859-11.263983l-124.799805-160.767749-79.359876 40.127938a64.0319 64.0319 0 0 1-57.72791-114.303822l124.287806-62.719902c1.279998-0.639999 2.687996-0.511999 3.967994-1.087998 26.495959-12.479981 58.623908-6.59199 77.311879 17.471973l157.439754 202.751683zM895.9986 63.969299999999976c0-35.519945-28.479956-63.9359-64.575899-63.9359H192.575699A64.3199 64.3199 0 0 0 127.9998 63.969299999999976V448.0327h767.9988v-384.0634zM127.9998 640.0324c0 35.519945 28.479956 63.9999 64.575899 63.9999H255.9996a63.9999 63.9999 0 1 1 127.9998 0h255.9996a63.9999 63.9999 0 1 1 127.9998 0h63.423901c35.711944 0 64.575899-28.799955 64.575899-63.9999v-63.9999H127.9998v63.9999z m127.9998 191.9997H192.575699a191.8717 191.8717 0 0 1-192.575699-191.9997v-576.0631c0-105.919835 86.207865-191.9357 192.575699-191.9357h638.847002A191.8077 191.8077 0 0 1 1023.9984 63.969299999999976V640.0324c0 105.919835-86.207865 191.9997-192.575699 191.9997H767.9988a63.9999 63.9999 0 0 1-127.9998 0h-255.9996a63.9999 63.9999 0 0 1-127.9998 0z"  horiz-adv-x="1024" />

    
    <glyph glyph-name="102" unicode="&#58983;" d="M470.51936 79.42399999999998l-448 384a64 64 0 1 0 83.296 97.184l448-384a64 64 0 1 0-83.296-97.184z m0 97.152l448 384a64 64 0 1 0 83.296-97.184l-448-384a64 64 0 1 0-83.296 97.184zM448.18336 160V832a64 64 0 1 0 128 0v-672a64 64 0 1 0-128 0zM65.43136 0h894.56a64 64 0 1 0 0-128H65.43136a64 64 0 1 0 0 128z"  horiz-adv-x="1024" />

    
    <glyph glyph-name="105" unicode="&#58984;" d="M851.008 550.56c-19.232 170.112-163.84 302.752-338.976 302.752-175.2 0-319.776-132.64-339.04-302.752-98.4-19.072-172.96-105.504-172.96-209.248 0-117.6 95.872-213.344 213.728-213.344a42.656 42.656 0 1 1 0 85.312 128.352 128.352 0 0 0-128.384 128c0 70.624 57.6 128 128.384 128 23.584 0 42.656 19.104 42.656 42.656 0 0.608-0.288 1.056-0.288 1.664 0.896 140.416 115.296 254.336 255.904 254.336 140.576 0 255.008-113.92 255.904-254.336-0.032-0.608-0.352-1.056-0.352-1.664 0-23.552 19.104-42.656 42.656-42.656a128.32 128.32 0 0 0 128.416-128c0-70.56-57.6-128-128.416-128a42.656 42.656 0 1 1 0-85.312c117.856 0 213.76 95.744 213.76 213.344 0 103.712-74.624 190.176-173.024 209.248zM747.808 334.528l-213.792 128.736c-0.864 0.512-1.888 0.512-2.784 0.992a50.24 50.24 0 0 1-5.728 2.4c-1.824 0.608-3.488 1.184-5.376 1.568-1.792 0.352-3.456 0.416-5.248 0.544-1.024 0.096-1.888 0.608-2.848 0.608-1.024 0-1.824-0.512-2.816-0.608a42.176 42.176 0 0 1-5.28-0.544c-1.824-0.352-3.488-0.992-5.248-1.568a37.472 37.472 0 0 1-5.856-2.4c-0.896-0.48-1.92-0.48-2.784-0.992l-213.344-128a42.624 42.624 0 0 1 22.016-79.232c7.456 0 15.008 1.952 21.888 6.048l148.736 89.216v-351.264a42.624 42.624 0 1 1 85.312 0V351.168l149.12-89.76a42.56 42.56 0 0 1 58.528 14.528 42.688 42.688 0 0 1-14.56 58.592z"  horiz-adv-x="1024" />

    
    <glyph glyph-name="104" unicode="&#58985;" d="M981.344 298.65599999999995c-23.552 0-42.656-19.104-42.656-42.656v-213.28a85.472 85.472 0 0 0-85.376-85.376H170.72a85.44 85.44 0 0 0-85.376 85.376V256a42.656 42.656 0 0 1-85.312 0v-213.28A170.912 170.912 0 0 1 170.752-128h682.592a170.912 170.912 0 0 1 170.72 170.72V256c0 23.552-19.104 42.656-42.656 42.656zM276.704 347.424l209.536-125.728c7.52-5.728 16.48-9.056 25.824-9.056 7.456 0 15.072 1.952 21.92 6.112l213.792 128.672a42.72 42.72 0 0 1-44.032 73.152l-149.088-89.76V725.344a42.656 42.656 0 1 1-85.312 0v-393.952l-148.736 89.216a42.56 42.56 0 0 1-58.528-14.624 42.624 42.624 0 0 1 14.624-58.528z"  horiz-adv-x="1024" />

    
    <glyph glyph-name="106" unicode="&#58986;" d="M512-42.65599999999995C276.736-42.65599999999995 85.344 148.736 85.344 384S276.736 810.656 512 810.656 938.656 619.264 938.656 384 747.264-42.65599999999995 512-42.65599999999995zM512 896C229.664 896 0 666.336 0 384s229.664-512 512-512 512 229.664 512 512S794.336 896 512 896zM733.088 584.608l-277.536-281.344-127.104 123.776a42.624 42.624 0 1 1-59.552-61.088l157.472-153.376c8.288-8.064 19.04-12.064 29.792-12.064 11.008 0 22.016 4.224 30.368 12.672l307.328 311.552A42.624 42.624 0 1 1 733.12 584.64z"  horiz-adv-x="1024" />

    
    </font>
</defs>
</svg>
